<?xml version="1.0" encoding="utf-8"?>
<!DOCTYPE svg PUBLIC "-//W3C//DTD SVG 1.0//EN" "http://www.w3.org/TR/2001/REC-SVG-20010904/DTD/svg10.dtd">
<svg version="1.0" xmlns="http://www.w3.org/2000/svg" width="500px" height="500px" viewBox="0 0 500 500" preserveAspectRatio="xMidYMid meet">
 <g fill="#000000">
  <path d="M54.9 418.1 c-17.4 -2.4 -31.3 -16.8 -36.6 -37.9 -2.5 -9.6 -2.4 -38 0 -47.7 2.5 -9.8 7.7 -20.1 13.7 -26.7 2.8 -3.2 4.9 -6.2 4.5 -6.8 -0.3 -0.5 -2.6 -1 -5.1 -1 -5.6 0 -7.9 -1.2 -9.9 -5 -1.3 -2.6 -1.3 -6 0.5 -32.7 1.1 -16.4 2.1 -32.4 2.3 -35.6 0.3 -4.7 0.8 -6.3 3 -8.5 2.6 -2.6 3.2 -2.7 13.3 -2.7 l10.6 0 2.8 3.1 c1.5 1.7 3.3 5.5 4.1 8.3 1.3 5.1 3.4 6.7 4.5 3.4 3.1 -9.7 4.8 -12.6 8.3 -14 5.5 -2.3 18.7 -1.4 22.8 1.6 l3.1 2.4 3.4 -2.4 c3 -2.2 4.5 -2.4 16 -2.7 11.5 -0.4 13.2 -0.2 17.3 1.8 4.5 2.2 4.6 2.2 6.7 0.4 1.6 -1.6 3.6 -1.9 10.8 -1.9 11.3 0 13.5 1.4 16.5 10.6 1.1 3.5 2.4 6.4 3 6.4 0.5 0 1.7 -2.7 2.7 -6 1 -3.3 3 -7.1 4.4 -8.5 2.3 -2.3 3.1 -2.5 12.5 -2.5 l10.1 0 2.9 3.3 c2 2.2 2.9 4.3 2.9 6.7 0 1.9 0.3 3.5 0.6 3.5 0.4 0 2.3 -1.9 4.4 -4.3 2.1 -2.3 6.4 -5.6 9.5 -7.2 5.2 -2.6 6.7 -2.9 15.4 -2.9 10.8 0.1 14.1 1.1 21.1 6.7 2.4 2 4.6 3.4 4.8 3.2 0.3 -0.2 -0.1 -1.9 -0.7 -3.7 -1.1 -3.1 -1 -3.5 2 -6.1 l3.1 -2.9 19.6 0.6 c23.1 0.6 20.5 0.6 36 0 9.3 -0.4 12.9 -0.2 15.1 0.9 2.3 1.2 3.1 1.2 4.6 0 2.4 -1.7 23.3 -1.8 27 -0.1 5.9 2.7 7 11.1 3.1 22.4 -1.4 3.8 -5 13.1 -8 20.6 -4.5 10.9 -5.6 14.8 -5.6 19.2 0 4.8 -0.3 5.6 -1.9 5.6 -1.6 0 -2 0.9 -2.3 5.8 -0.2 3.1 -0.6 6.4 -0.9 7.2 -0.3 1.2 1.2 1.6 8 2 7.5 0.5 8.6 0.9 10.7 3.3 2.2 2.6 2.4 3.6 2.4 15.1 l0 12.2 -3.1 3 c-2.7 2.6 -3.8 2.9 -11 3.3 l-7.9 0.3 0 3.4 0 3.4 6 0 c3.2 0 7 0.5 8.4 1.1 3.6 1.7 5.6 7.6 5.6 16.5 0 13 -3.4 17.3 -14.7 18.2 l-6.3 0.5 0 3.2 0 3.3 8.8 0.4 c9.8 0.5 13.5 1.9 15.1 5.5 0.6 1.3 1.1 6.8 1.1 12.3 0 18 0 18 -30 18 -18.6 0 -22.6 -0.3 -24.9 -1.6 -2.5 -1.5 -3 -1.5 -5.9 0 -3.6 1.9 -25 2.3 -28.2 0.6 -2.8 -1.5 -4.3 -4.8 -5 -10.4 -0.6 -6.1 -2.4 -6.9 -4.4 -2.1 -2.2 5.2 -7.7 7.5 -18.6 7.5 -10.5 0 -14.5 -1.7 -17.8 -7.7 -2.7 -4.9 -4.2 -5.5 -4.2 -1.7 0 5.4 -2.2 11.4 -5 13.4 -2.4 1.7 -4.5 2 -14.2 2 -8.9 0 -11.9 -0.4 -13.7 -1.6 -2.2 -1.6 -2.5 -1.6 -5.1 0 -2.2 1.2 -5.4 1.6 -14.3 1.6 -10.2 0 -11.8 -0.2 -14.8 -2.3 -2.8 -1.9 -3.6 -3.3 -4.7 -8.2 -0.8 -3.3 -1.5 -6.6 -1.8 -7.2 -0.2 -0.9 -2.9 -1.3 -8.7 -1.3 l-8.3 0 -1.3 6.2 c-0.9 4.6 -2.1 7 -4.6 9.5 l-3.3 3.3 -12.1 0 c-16.6 0 -20.1 -1.9 -20.1 -10.9 0 -2.3 -0.3 -4.1 -0.6 -4.1 -0.3 0 -3.2 2.3 -6.3 5.2 -8.5 7.8 -15.4 10.6 -27.6 11.2 -5.5 0.2 -12.5 0.1 -15.6 -0.3z m27.6 -14 c7.5 -3.7 11.7 -8.2 15.7 -16.7 2.9 -6.2 4.8 -17.2 4.8 -28.1 0 -8.7 0.9 -8.3 -17.5 -8.3 -16 0 -16.3 0 -16.9 2.3 -1 3.7 -0.7 10.2 0.6 11.5 0.7 0.7 4 1.2 8 1.2 l6.8 0 0 7.4 c0 12.1 -3.7 17.8 -12.6 19.2 -12 1.8 -19.5 -3 -22.9 -14.7 -2.6 -8.6 -2.7 -35.4 -0.3 -44.2 3.4 -12.3 9.8 -17.3 20.7 -16.5 7.5 0.5 10.3 2.8 13.2 11 2 5.4 2.4 5.8 5.3 5.7 1.7 0 5.4 -0.6 8.1 -1.3 4.7 -1.1 5 -1.3 4.7 -4.1 -0.6 -5.5 -6 -15.2 -10.5 -18.8 -15.3 -12.3 -39.8 -9.1 -51.8 6.8 -5.5 7.3 -8.7 16 -10.6 28.3 -2.3 15.4 -0.1 31.7 5.7 43.2 2.6 5 9 12.2 13.5 15 9.5 5.9 25.3 6.4 36 1.1z m52.4 -4.1 c0.7 -3 1.8 -7.2 2.3 -9.2 l0.9 -3.8 16.9 0 16.9 0 1 3.8 c0.5 2 1.3 5.5 1.7 7.7 1.2 7.3 1.6 7.5 10.4 7.5 4.4 0 8 -0.3 8 -0.7 0 -3.1 -24.6 -97.2 -25.8 -98.5 -2.2 -2.6 -22.2 -2.6 -24.4 0 -0.8 0.9 -4.7 14.3 -8.6 29.7 -4 15.4 -9.6 37.4 -12.6 48.8 l-5.4 20.8 8.6 -0.3 8.7 -0.3 1.4 -5.5z m91.5 -0.2 c0.3 -3.5 1 -14.2 1.6 -23.8 0.6 -9.6 1.3 -20.8 1.6 -24.7 l0.6 -7.3 3.2 0 3.2 0 5.8 19.8 c11.1 37.4 10.1 34.9 14.4 35.7 4.5 0.7 8.8 -0.7 9.6 -3.2 0.3 -1 3.3 -10.8 6.7 -21.8 3.3 -11 6.8 -22.4 7.6 -25.2 1.5 -5 1.7 -5.3 4.9 -5.3 2.1 0 3.4 0.5 3.4 1.3 0 4.2 3.2 58.4 3.5 59.5 0.5 1.3 16 1.8 16.8 0.5 0.2 -0.5 -0.2 -9.6 -0.9 -20.3 -0.8 -10.7 -2.2 -32.6 -3.3 -48.7 -1 -16 -2.2 -29.6 -2.5 -30.2 -0.5 -0.7 -4.5 -1.1 -10.6 -1.1 -8.5 0 -10.1 0.3 -10.9 1.8 -0.8 1.5 -4.2 12.4 -15.7 51 -2.5 8.2 -2.5 8.2 -5.9 8.2 -4 0 -2.6 3.4 -13 -32.9 -4.2 -14.6 -7.8 -26.8 -8.1 -27.3 -0.3 -0.4 -5.2 -0.8 -10.9 -0.8 -10 0 -10.5 0.1 -11 2.3 -0.5 2.3 -7.5 91.2 -7.5 96 l0 2.7 8.4 0 8.4 0 0.6 -6.2z m139 4.6 c0.9 -2.5 0.7 -8.3 -0.4 -10.5 -1 -1.7 -2.2 -1.9 -12.5 -1.9 l-11.5 0 0 -12.2 c0 -17.6 -0.4 -16.8 9.5 -16.8 9.9 0 10.7 -0.7 10.3 -8.2 l-0.3 -5.3 -9.2 -0.3 -9.3 -0.3 0 -14.4 0 -14.5 10.4 0 c11.5 0 11.6 -0.1 11.6 -6.8 0 -8.7 1.1 -8.2 -19.6 -8.2 l-18.4 0 -0.1 32.3 c0 17.7 -0.2 39.9 -0.3 49.2 -0.2 9.4 -0.1 17.6 0.1 18.3 0.4 0.9 5.3 1.2 19.8 1.2 16.7 0 19.4 -0.2 19.9 -1.6z m-122.6 -117 c11.7 -4.9 18.1 -21.2 15.4 -39.6 -2.2 -15.5 -10.3 -24.3 -22.1 -24.3 -15.1 0 -25.1 15.4 -23.8 36.5 0.6 10.1 2.6 16.2 6.9 21.4 5.7 7 15.5 9.4 23.6 6z m-203.6 -5.9 c0.3 -3.3 1 -12.2 1.3 -19.7 l0.7 -13.8 3.2 0 3.1 0 4.9 16.3 c2.7 8.9 5.5 16.8 6.2 17.6 1.4 1.5 4.2 0.9 4.9 -1.1 0.2 -0.7 2.6 -8.2 5.2 -16.5 l4.7 -15.3 3.2 0 c3.1 0 3.2 0.1 3.7 5.8 0.4 3.1 0.9 11.3 1.3 18.2 0.4 6.9 1.1 13.1 1.7 13.8 1 1.3 4.5 1.6 6.4 0.4 0.8 -0.5 0.9 -3.6 0.3 -11.7 -0.5 -6.1 -1.4 -19.5 -2.1 -30 -0.6 -10.4 -1.6 -19.6 -2.1 -20.3 -1.2 -1.4 -9.4 -1.7 -10.3 -0.3 -0.3 0.6 -1.9 5.6 -3.6 11.3 -8.5 28.9 -7.6 26.8 -11.3 26.8 l-3.3 0 -2.7 -9.7 c-1.5 -5.4 -4.1 -14.2 -5.7 -19.5 l-3 -9.8 -4.8 0 c-2.7 0 -5.3 0.6 -5.8 1.2 -1.1 1.5 -4.6 60.5 -3.7 62 0.3 0.5 2 0.8 3.7 0.6 3.1 -0.3 3.2 -0.5 3.9 -6.3z m90.3 2.5 l0 -3.5 -7.2 -0.3 -7.3 -0.3 0 -9.9 0 -10 6.6 0 6.5 0 -0.3 -3.2 c-0.3 -3.3 -0.3 -3.3 -6.5 -3.6 l-6.3 -0.3 0 -9.9 0 -10 6.3 0 c7.7 0 8.9 -0.8 8.5 -5.1 l-0.3 -3.4 -9.5 -0.3 c-5.2 -0.2 -10.5 0 -11.7 0.3 l-2.3 0.5 0 30.9 c0 16.9 0.3 31.1 0.7 31.5 0.4 0.3 5.7 0.5 11.7 0.4 l11.1 -0.3 0 -3.5z m19.4 1.8 c0.5 -1.3 1.2 -10.1 1.6 -19.5 l0.7 -17.3 3.4 0 c3.3 0 3.3 0.1 5.4 7.3 7.5 25.4 8 26.8 10.3 26.5 1.8 -0.3 2.8 -2.6 7.1 -16.5 l4.9 -16.3 3.4 0 c4 0 4 -0.2 4.8 19.9 0.4 8.4 0.9 16 1.2 16.8 0.4 0.9 1.7 1.3 3.7 1.1 l3.1 -0.3 -0.3 -13 c-0.4 -16.4 -2.7 -47.9 -3.6 -49.4 -1 -1.5 -8.1 -1.4 -9.3 0.2 -0.6 0.6 -3.4 9.6 -6.4 19.9 l-5.4 18.8 -3.2 0 c-3.6 0 -2.4 2.8 -10.8 -26 -2 -6.8 -3.9 -12.8 -4.1 -13.2 -0.6 -1 -7.5 -1 -9 0 -1.1 0.7 -5.7 60.9 -4.7 62.4 0.2 0.5 1.8 0.8 3.4 0.8 2.1 0 3.2 -0.6 3.8 -2.2z m133.1 -10.3 l0.5 -12 5.1 -0.3 5.1 -0.3 4.2 10.3 c5.6 13.5 6.5 14.8 10.1 14.8 1.7 0 3 -0.4 3 -0.9 0 -0.5 -2 -5.1 -4.5 -10.3 -5.5 -11.3 -5.8 -15.7 -1.7 -19.6 4.1 -3.9 6.6 -11 5.8 -16.6 -0.9 -5.7 -5.7 -12.3 -10.4 -14.3 -5 -2.1 -22.6 -3 -24.7 -1.3 -1.4 1.2 -1.5 4.8 -1 31.3 0.3 16.5 0.8 30.4 1.1 30.9 0.3 0.5 2 0.8 3.7 0.6 l3.2 -0.3 0.5 -12z m61 10.6 c0.5 -1.1 1 -7.4 1 -14 l0 -12.1 7 -17.5 c3.9 -9.6 7 -17.7 7 -18 0 -1.1 -5.8 -0.4 -6.7 0.7 -0.6 0.7 -2.7 6.6 -4.9 13.1 l-3.9 11.8 -3.4 -0.3 -3.4 -0.3 -4.2 -12.5 -4.2 -12.5 -3.6 -0.3 c-2 -0.2 -3.7 0 -3.7 0.3 0 0.3 3.1 8.3 6.9 17.8 l7 17.2 0.6 13 c0.4 7.2 0.8 13.6 1 14.3 0.7 2 6.3 1.5 7.5 -0.7z"/>
  <path d="M142.7 372.3 c-1.3 -1.2 -0.7 -4.8 4 -26 l4.8 -21.3 3.3 0 c1.7 0 3.2 0.2 3.2 0.4 0 0.2 2 9.1 4.5 19.8 2.5 10.6 4.5 21.2 4.5 23.6 l0 4.2 -11.8 0 c-6.5 0 -12.2 -0.3 -12.5 -0.7z"/>
  <path d="M225.6 278 c-3.1 -3.7 -4.1 -9.6 -4 -22.5 0.2 -12 1.6 -17.9 5.4 -21.7 2.5 -2.5 3.6 -2.8 9 -2.8 10.6 0 13 4.6 13 24.5 0 13.5 -0.9 18.1 -4.6 22.5 -2.4 2.8 -3 3 -9.4 3 -6.4 0 -7 -0.2 -9.4 -3z"/>
  <path d="M282.4 255.7 c-0.2 -0.7 -0.3 -6.5 -0.2 -12.8 l0.3 -11.4 6.7 0 c5.7 0 7.1 0.4 9 2.3 2 2 2.3 3.3 2.3 10.3 0 7.6 -0.2 8.2 -2.8 10.5 -2.3 2 -3.9 2.4 -8.8 2.4 -4 0 -6.1 -0.4 -6.5 -1.3z"/>
 </g>
 <g fill="#238813">
  <path d="M133 406.6 c0 -2.1 0.5 -2.6 2.5 -2.6 2.1 0 2.3 0.3 1.6 2.3 -1.2 3.3 -4.1 3.5 -4.1 0.3z"/>
  <path d="M365 399.9 c0 -8.1 0.2 -9 1.8 -8.7 1.4 0.3 1.8 1.6 2 6.8 0.4 7.7 -0.3 11 -2.3 11 -1.2 0 -1.5 -1.7 -1.5 -9.1z"/>
  <path d="M309 402.5 c0 -2.8 0.4 -3.5 2 -3.5 1.6 0 2 0.7 2 3.5 0 2.8 -0.4 3.5 -2 3.5 -1.6 0 -2 -0.7 -2 -3.5z"/>
  <path d="M91 400.7 c0 -3.4 0.2 -3.7 3 -3.7 1.7 0 3 0.4 3 0.8 0 0.5 -1.3 2.1 -3 3.7 l-3 2.9 0 -3.7z"/>
  <path d="M249.1 399 c-0.9 -2.8 -0.8 -3 1.5 -3 2 0 2.4 0.5 2.4 3 0 1.9 -0.5 3 -1.4 3 -0.8 0 -1.9 -1.3 -2.5 -3z"/>
  <path d="M226 396.5 c0 -2.8 0.4 -3.5 2 -3.5 1.6 0 2 0.7 2 3.5 0 2.8 -0.4 3.5 -2 3.5 -1.6 0 -2 -0.7 -2 -3.5z"/>
  <path d="M67 391.5 c0 -0.8 0.1 -1.5 0.3 -1.5 0.1 0 1.7 -0.4 3.5 -0.9 3 -0.9 3.2 -0.8 3.2 1.5 0 2.1 -0.5 2.4 -3.5 2.4 -2.4 0 -3.5 -0.5 -3.5 -1.5z"/>
  <path d="M100 383.5 c0 -3 0.3 -3.5 2.4 -3.5 2.3 0 2.4 0.2 1.5 3.2 -0.5 1.8 -0.9 3.4 -0.9 3.5 0 0.2 -0.7 0.3 -1.5 0.3 -1 0 -1.5 -1.1 -1.5 -3.5z"/>
  <path d="M227 382.5 c0 -2.8 0.4 -3.5 2 -3.5 1.6 0 2 0.7 2 3.5 0 2.8 -0.4 3.5 -2 3.5 -1.6 0 -2 -0.7 -2 -3.5z"/>
  <path d="M79.5 381.3 c0.4 -1 1 -2.6 1.2 -3.5 1 -3.3 3.3 -2 3.3 1.7 0 3.1 -0.3 3.5 -2.6 3.5 -2.1 0 -2.5 -0.3 -1.9 -1.7z"/>
  <path d="M119 381.1 c0 -3 1.1 -5.1 2.6 -5.1 0.9 0 1.4 1.2 1.4 3.5 0 2.8 -0.4 3.5 -2 3.5 -1.3 0 -2 -0.7 -2 -1.9z"/>
  <path d="M49 378.5 c0 -2.2 0.5 -3.5 1.3 -3.5 0.8 0 1.8 1.6 2.4 3.5 1.1 3.3 1 3.5 -1.3 3.5 -2.1 0 -2.4 -0.5 -2.4 -3.5z"/>
  <path d="M275 368.5 c0 -3 0.3 -3.5 2.4 -3.5 2.3 0 2.4 0.2 1.3 3.5 -0.6 1.9 -1.6 3.5 -2.4 3.5 -0.8 0 -1.3 -1.3 -1.3 -3.5z"/>
  <path d="M183 364.5 c0 -4 2.4 -4.9 3.4 -1.2 1 3.7 0.7 4.7 -1.4 4.7 -1.6 0 -2 -0.7 -2 -3.5z"/>
  <path d="M306 359.5 c0 -3.8 0.3 -4.5 2 -4.5 1.7 0 2 0.7 2 4.5 0 3.8 -0.3 4.5 -2 4.5 -1.7 0 -2 -0.7 -2 -4.5z"/>
  <path d="M285.9 351.3 c-0.1 -4.8 -0.1 -4.8 -1.1 -1.5 -1.5 4.4 -3.8 4.2 -3.8 -0.3 0 -3.3 0.2 -3.5 3.5 -3.5 2.4 0 3.5 0.5 3.5 1.5 0 0.8 0.5 1.5 1 1.5 0.6 0 1 1.6 1 3.5 0 2.8 -0.4 3.5 -2 3.5 -1.7 0 -2 -0.7 -2.1 -4.7z"/>
  <path d="M177 340.5 c0 -4 2.4 -4.9 3.4 -1.2 1 3.7 0.7 4.7 -1.4 4.7 -1.6 0 -2 -0.7 -2 -3.5z"/>
  <path d="M47 339.6 c0 -5.7 1.2 -8.6 3.6 -8.6 1.4 0 2.2 0.5 1.9 1.3 -0.2 0.6 -0.9 3.1 -1.5 5.5 -1.2 4.6 -4 5.9 -4 1.8z"/>
  <path d="M81.6 336.4 c-2.3 -2.2 -2 -3.4 0.9 -3.4 2 0 2.5 0.5 2.5 2.5 0 2.9 -1.2 3.2 -3.4 0.9z"/>
  <path d="M247 334.5 c0 -2.4 0.5 -3.5 1.5 -3.5 0.8 0 1.5 0.1 1.5 0.3 0 0.1 0.4 1.7 0.9 3.5 0.9 3 0.8 3.2 -1.5 3.2 -2.1 0 -2.4 -0.5 -2.4 -3.5z"/>
  <path d="M304 327.5 c0 -2.8 0.4 -3.5 2 -3.5 1.6 0 2 0.7 2 3.5 0 2.8 -0.4 3.5 -2 3.5 -1.6 0 -2 -0.7 -2 -3.5z"/>
  <path d="M172 321.5 c0 -2.2 0.5 -3.5 1.3 -3.5 0.8 0 1.8 1.6 2.4 3.5 1.1 3.3 1 3.5 -1.3 3.5 -2.1 0 -2.4 -0.5 -2.4 -3.5z"/>
  <path d="M272.3 321.5 c0.6 -1.9 1.6 -3.5 2.4 -3.5 0.8 0 1.3 1.3 1.3 3.5 0 3 -0.3 3.5 -2.4 3.5 -2.3 0 -2.4 -0.2 -1.3 -3.5z"/>
  <path d="M60 319.6 c0 -2.3 0.4 -2.6 3.5 -2.6 3.7 0 5 2.3 1.8 3.3 -1 0.2 -2.6 0.8 -3.5 1.2 -1.5 0.6 -1.8 0.2 -1.8 -1.9z"/>
  <path d="M303 310.9 c0 -3.3 0.3 -4 1.8 -3.7 1.2 0.2 1.8 1.4 2 4.1 0.3 3.2 0 3.7 -1.7 3.7 -1.8 0 -2.1 -0.6 -2.1 -4.1z"/>
  <path d="M137.1 310.8 c0.5 -1.8 0.9 -3.4 0.9 -3.5 0 -0.2 0.7 -0.3 1.5 -0.3 1 0 1.5 1.1 1.5 3.5 0 3 -0.3 3.5 -2.4 3.5 -2.3 0 -2.4 -0.2 -1.5 -3.2z"/>
  <path d="M169 310.5 c0 -2.4 0.5 -3.5 1.5 -3.5 0.8 0 1.5 0.1 1.5 0.3 0 0.1 0.4 1.7 0.9 3.5 0.9 3 0.8 3.2 -1.5 3.2 -2.1 0 -2.4 -0.5 -2.4 -3.5z"/>
  <path d="M276.8 307.3 c1.3 -3.5 2.4 -4.9 4 -5.1 2.7 -0.4 2.8 0.9 0.5 5.9 -1.3 2.8 -2.4 3.9 -4 3.9 l-2.3 0 1.8 -4.7z"/>
  <path d="M40 308.3 c0 -0.5 1.6 -1.8 3.5 -3.1 l3.5 -2.2 0 3 c0 2.8 -0.3 3 -3.5 3 -1.9 0 -3.5 -0.3 -3.5 -0.7z"/>
  <path d="M213 306.6 c0 -2.5 1.2 -4.6 2.6 -4.6 0.9 0 1.4 1.1 1.4 3 0 2.3 -0.4 3 -2 3 -1.1 0 -2 -0.6 -2 -1.4z"/>
  <path d="M28.7 290.3 c-1.6 -1.5 -0.6 -3.3 1.8 -3.3 1.8 0 2.5 0.5 2.5 2 0 2 -2.8 2.8 -4.3 1.3z"/>
  <path d="M103.7 290.3 c-0.4 -0.3 -0.7 -1.2 -0.7 -2 0 -1 2.7 -1.3 12 -1.3 11.3 0 12 0.1 12 2 0 1.9 -0.7 2 -11.3 2 -6.3 0 -11.7 -0.3 -12 -0.7z"/>
  <path d="M138.7 290.4 c-0.4 -0.4 -0.7 -2.5 -0.7 -4.6 0 -3.1 0.3 -3.8 2 -3.8 1.5 0 2 0.7 2 2.5 0 2.3 0.3 2.5 5.1 2.5 4.3 0 5 0.3 4.7 1.8 -0.3 1.3 -1.5 1.8 -6.4 2 -3.3 0.2 -6.3 0 -6.7 -0.4z"/>
  <path d="M188.6 289.5 c-1.2 -3.3 -0.7 -5.5 1.4 -5.5 1.1 0 2 0.7 2 1.5 0 1.1 1.2 1.5 5.1 1.5 4.3 0 5 0.3 4.7 1.8 -0.5 2.5 -12.2 3.1 -13.2 0.7z"/>
  <path d="M271.7 290.4 c-0.4 -0.4 -0.7 -1.3 -0.7 -2.1 0 -1 1.8 -1.3 7.1 -1.3 6.2 0 7 0.2 6.7 1.8 -0.3 1.3 -1.5 1.8 -6.4 2 -3.3 0.2 -6.3 0 -6.7 -0.4z"/>
  <path d="M300.2 289.8 c-2.2 -2.2 -1.2 -2.8 4.8 -2.8 4.7 0 6 -0.3 6 -1.5 0 -2.2 1.7 -1.8 3 0.6 2.1 3.8 0.6 4.9 -6.3 4.9 -3.6 0 -6.8 -0.5 -7.5 -1.2z"/>
  <path d="M332.7 290.3 c-0.4 -0.3 -0.7 -1.2 -0.7 -2 0 -1 1.9 -1.3 7.5 -1.3 7.3 0 7.5 0.1 6.5 2 -0.9 1.6 -2.1 2 -6.9 2 -3.2 0 -6.1 -0.3 -6.4 -0.7z"/>
  <path d="M218.8 287 l-3.3 -2.9 3.8 -0.1 c3.5 0 3.7 0.2 3.7 3 0 1.7 -0.2 3 -0.5 3 -0.3 0 -1.9 -1.3 -3.7 -3z"/>
  <path d="M246 287.5 c0 -2.2 0.4 -2.5 3.8 -2.5 l3.7 0.1 -2.8 2.4 c-3.6 3.2 -4.7 3.1 -4.7 0z"/>
  <path d="M63 283.3 c0 -1.4 0.8 -5 1.7 -8 1.3 -4.3 2.1 -5.3 3.9 -5.3 l2.2 0 -2.2 6.8 c-1.2 3.7 -2.5 7.3 -2.9 8 -1.4 2.1 -2.7 1.3 -2.7 -1.5z"/>
  <path d="M149 280 c0 -3.3 0.3 -4 2 -4 1.7 0 2 0.7 2 4 0 3.3 -0.3 4 -2 4 -1.7 0 -2 -0.7 -2 -4z"/>
  <path d="M174.3 276.5 c0.5 -5.3 0.9 -5.8 3.4 -5.3 1.8 0.3 1.8 0.6 0.5 5.1 -0.8 3 -1.9 4.7 -2.9 4.7 -1.3 0 -1.5 -0.9 -1 -4.5z"/>
  <path d="M255 277.5 c0 -1.4 0.5 -4.5 1.2 -7 0.9 -3.4 1.7 -4.5 3.1 -4.5 1.7 0 1.9 0.5 1.3 4.1 -1.2 7.5 -5.6 13.3 -5.6 7.4z"/>
  <path d="M211.3 275.5 c-1.1 -3.3 -1 -3.5 1.3 -3.5 2.1 0 2.4 0.5 2.4 3.5 0 2.2 -0.5 3.5 -1.3 3.5 -0.8 0 -1.8 -1.6 -2.4 -3.5z"/>
  <path d="M304 272.5 c0 -3.7 2.3 -5 3.3 -1.7 0.2 0.9 0.8 2.5 1.2 3.5 0.6 1.4 0.2 1.7 -1.9 1.7 -2.3 0 -2.6 -0.4 -2.6 -3.5z"/>
  <path d="M187 268.5 c0 -2.8 0.4 -3.5 2 -3.5 1.6 0 2 0.7 2 3.5 0 2.8 -0.4 3.5 -2 3.5 -1.6 0 -2 -0.7 -2 -3.5z"/>
  <path d="M209.6 268.4 c-1.2 -3.2 -0.6 -5.4 1.4 -5.4 1.6 0 2 0.7 2 3.5 0 3.7 -2.2 4.9 -3.4 1.9z"/>
  <path d="M150 262.5 c0 -2.4 0.5 -3.5 1.4 -3.5 0.9 0 1.6 -1.3 1.9 -3.2 0.2 -1.8 0.5 -0.3 0.5 3.5 0.2 6.1 0 6.7 -1.8 6.7 -1.6 0 -2 -0.7 -2 -3.5z"/>
  <path d="M40 259.5 c0 -2.8 0.4 -3.5 2 -3.5 1.6 0 2 0.7 2 3.5 0 2.8 -0.4 3.5 -2 3.5 -1.6 0 -2 -0.7 -2 -3.5z"/>
  <path d="M329.5 259 c-2 -3.8 -1.9 -4 1 -4 2.2 0 2.5 0.4 2.5 3.5 0 4.3 -1.4 4.5 -3.5 0.5z"/>
  <path d="M156.3 256.5 c-1.1 -3.3 -1 -3.5 1.3 -3.5 2.1 0 2.4 0.5 2.4 3.5 0 2.2 -0.5 3.5 -1.3 3.5 -0.8 0 -1.8 -1.6 -2.4 -3.5z"/>
  <path d="M165 256.5 c0 -2.2 0.5 -3.5 1.3 -3.5 0.8 0 1.8 1.6 2.4 3.5 1.1 3.3 1 3.5 -1.3 3.5 -2.1 0 -2.4 -0.5 -2.4 -3.5z"/>
  <path d="M140 254.6 c0 -4.4 0.9 -6.6 2.6 -6.6 1 0 1.4 1.4 1.4 5 0 4.3 -0.3 5 -2 5 -1.6 0 -2 -0.7 -2 -3.4z"/>
  <path d="M282 253.5 c0 -3.9 2.4 -5 3.3 -1.5 0.6 2.5 5.2 2.7 8.5 0.4 2.1 -1.5 2.2 -1.4 2.2 1.5 l0 3.1 -7 0 -7 0 0 -3.5z"/>
  <path d="M221 250.5 c0 -2.8 0.4 -3.5 2 -3.5 1.6 0 2 0.7 2 3.5 0 2.8 -0.4 3.5 -2 3.5 -1.6 0 -2 -0.7 -2 -3.5z"/>
  <path d="M258 249.3 c0 -1 -0.3 -4.2 -0.6 -7 -0.6 -4.4 -0.4 -5.3 0.9 -5.3 1.6 0 2.1 1.6 3.2 9.3 0.7 4.3 0.6 4.7 -1.4 4.7 -1.3 0 -2.1 -0.6 -2.1 -1.7z"/>
  <path d="M270 241.5 c0 -4.8 0.2 -5.5 2 -5.5 1.8 0 2 0.7 2 5.5 0 4.8 -0.2 5.5 -2 5.5 -1.8 0 -2 -0.7 -2 -5.5z"/>
  <path d="M51 240.5 c0 -1.9 -0.4 -3.5 -1 -3.5 -0.5 0 -1 -1.6 -1 -3.5 0 -1.9 -0.4 -3.5 -1 -3.5 -0.5 0 -1 -1.6 -1 -3.5 0 -5.6 2.5 -4.3 4.4 2.3 0.9 3.1 2.3 7.8 3.1 10.5 l1.4 4.7 -2.4 0 c-2.2 0 -2.5 -0.5 -2.5 -3.5z"/>
  <path d="M141 240.5 c0 -2.8 0.4 -3.5 2 -3.5 1.6 0 2 0.7 2 3.5 0 2.8 -0.4 3.5 -2 3.5 -1.6 0 -2 -0.7 -2 -3.5z"/>
  <path d="M353 238.5 c0 -1.9 0.5 -3.5 1 -3.5 0.6 0 1 -1.1 1 -2.5 0 -1.4 0.5 -2.5 1 -2.5 0.6 0 1 -1.1 1 -2.5 0 -1.4 0.5 -2.5 1 -2.5 0.6 0 1 -0.9 1 -2 0 -2.3 1.3 -2.6 2.8 -0.7 0.7 0.8 -0.1 3.9 -2.7 10.4 -3.8 9.7 -6.1 11.9 -6.1 5.8z"/>
  <path d="M68.3 235.5 c0.6 -1.9 1.6 -3.5 2.4 -3.5 0.8 0 1.3 1.3 1.3 3.5 0 3 -0.3 3.5 -2.4 3.5 -2.3 0 -2.4 -0.2 -1.3 -3.5z"/>
  <path d="M282 234.5 c0 -3.3 0.2 -3.5 3.5 -3.5 3.9 0 5 2.4 1.5 3.3 -1.1 0.3 -2 1.2 -2 2.1 0 0.9 -0.7 1.6 -1.5 1.6 -1 0 -1.5 -1.1 -1.5 -3.5z"/>
  <path d="M305 228.4 c0 -3.9 0.9 -3.8 4 0.6 l2.1 3 -3 0 c-2.9 0 -3.1 -0.3 -3.1 -3.6z"/>
  <path d="M329 228.5 c0 -2.2 0.5 -3.5 1.3 -3.5 0.8 0 1.8 1.6 2.4 3.5 1.1 3.3 1 3.5 -1.3 3.5 -2.1 0 -2.4 -0.5 -2.4 -3.5z"/>
  <path d="M86 224.5 c0 -3.7 0.8 -4.3 2.8 -2.3 2 2 1.5 5.8 -0.8 5.8 -1.6 0 -2 -0.7 -2 -3.5z"/>
  <path d="M356.7 151.3 c-2.3 -0.6 -3.7 -4.2 -3.7 -9.4 0 -7.2 6.7 -15 16.8 -19.6 4.4 -2.1 7 -2.5 15.5 -2.6 l10.2 -0.2 0.3 4.4 c0.7 9.4 -9.9 22.9 -20.8 26.4 -4.9 1.6 -14.1 2.1 -18.3 1z"/>
 </g>
 <g fill="#8a3015">
  <path d="M225 407 c0 -1.3 0.7 -2 2 -2 1.3 0 2 0.7 2 2 0 1.3 -0.7 2 -2 2 -1.3 0 -2 -0.7 -2 -2z"/>
  <path d="M322.6 407.4 c-1.3 -3.4 -0.7 -6.4 1.4 -6.4 1.7 0 2 0.7 2 4 0 4.1 -2.1 5.7 -3.4 2.4z"/>
  <path d="M261 401 c0 -1.6 0.7 -2 3.5 -2 4 0 4.9 2.4 1.3 3.4 -3.8 1 -4.8 0.7 -4.8 -1.4z"/>
  <path d="M322.2 391.5 c0.1 -7.6 0.3 -8.5 1.9 -8.5 1.7 0 1.9 0.9 1.9 8.5 0 7.7 -0.2 8.5 -1.9 8.5 -1.7 0 -1.9 -0.8 -1.9 -8.5z"/>
  <path d="M137 391.5 c0 -3.3 0.2 -3.5 3.5 -3.5 1.9 0 3.5 0.5 3.5 1 0 0.6 -0.7 1 -1.5 1 -0.8 0 -1.7 1.1 -2.1 2.5 -1 3.9 -3.4 3.1 -3.4 -1z"/>
  <path d="M66 391.5 c0 -0.8 0.6 -1.5 1.3 -1.6 0.6 0 2.2 -0.2 3.5 -0.5 1.7 -0.3 2.2 0.1 2.2 1.6 0 1.6 -0.7 2 -3.5 2 -2.4 0 -3.5 -0.5 -3.5 -1.5z"/>
  <path d="M101 380.5 c0 -2.8 0.4 -3.5 2 -3.5 2.2 0 2.6 2 1 5.1 -1.6 3 -3 2.3 -3 -1.6z"/>
  <path d="M287.6 376.8 c-1 -3.8 -0.7 -4.8 1.4 -4.8 1.6 0 2 0.7 2 3.5 0 4 -2.4 4.9 -3.4 1.3z"/>
  <path d="M322.6 363.8 c0.1 -7.3 0.3 -13.9 0.3 -14.5 0.1 -0.7 0.8 -1.3 1.6 -1.3 1.3 0 1.5 2.3 1.5 14.5 0 13.5 -0.1 14.5 -1.9 14.5 -1.7 0 -1.8 -0.8 -1.5 -13.2z"/>
  <path d="M228 371.5 c0 -2.8 0.4 -3.5 2 -3.5 2.1 0 2.4 1 1.4 4.8 -1 3.6 -3.4 2.7 -3.4 -1.3z"/>
  <path d="M307 369.5 c0 -4 2.4 -4.9 3.4 -1.2 1 3.7 0.7 4.7 -1.4 4.7 -1.6 0 -2 -0.7 -2 -3.5z"/>
  <path d="M341 367.5 c0 -4.5 0 -4.5 3.5 -4.5 2.4 0 3.5 0.5 3.5 1.5 0 0.8 -0.6 1.5 -1.4 1.5 -0.8 0 -1.7 1.4 -2.1 3 -1.1 4.8 -3.5 3.8 -3.5 -1.5z"/>
  <path d="M66.2 367.8 c-1.9 -1.9 -1.5 -4.8 0.8 -4.8 1.6 0 2 0.7 2 3 0 3.2 -0.9 3.7 -2.8 1.8z"/>
  <path d="M161.6 357.8 c-1 -3.8 -0.7 -4.8 1.4 -4.8 1.6 0 2 0.7 2 3.5 0 4 -2.4 4.9 -3.4 1.3z"/>
  <path d="M229 353.5 c0 -2.8 0.4 -3.5 2 -3.5 2.1 0 2.4 1 1.4 4.8 -1 3.6 -3.4 2.7 -3.4 -1.3z"/>
  <path d="M235.6 354.8 c-1 -3.8 -0.7 -4.8 1.4 -4.8 1.6 0 2 0.7 2 3.5 0 4 -2.4 4.9 -3.4 1.3z"/>
  <path d="M95 349.6 c0 -1.6 2.5 -2.4 5.3 -1.8 3.2 0.8 1.9 3.2 -1.8 3.2 -2.4 0 -3.5 -0.5 -3.5 -1.4z"/>
  <path d="M48 335.5 c0 -2.8 0.4 -3.5 2 -3.5 1.6 0 1.9 0.5 1.6 2.5 -1 5.5 -3.6 6.2 -3.6 1z"/>
  <path d="M25 336.8 c0 -3 1.3 -5.8 2.6 -5.8 0.9 0 1.4 1.2 1.4 3.5 0 2.8 -0.4 3.5 -2 3.5 -1.1 0 -2 -0.6 -2 -1.2z"/>
  <path d="M90 335 c0 -1.6 0.7 -2 3.5 -2 4 0 4.9 2.4 1.3 3.4 -3.8 1 -4.8 0.7 -4.8 -1.4z"/>
  <path d="M247 333.5 c0 -2.4 0.5 -3.5 1.5 -3.5 0.8 0 1.5 0.6 1.6 1.3 0 0.6 0.2 2.2 0.5 3.5 0.3 1.7 -0.1 2.2 -1.6 2.2 -1.6 0 -2 -0.7 -2 -3.5z"/>
  <path d="M150 332.5 c0 -2.8 0.4 -3.5 2 -3.5 2.1 0 2.4 1 1.4 4.8 -1 3.6 -3.4 2.7 -3.4 -1.3z"/>
  <path d="M155.8 332.5 c-0.6 -3 -0.3 -4.3 0.8 -3.3 0.3 0.4 0.4 1.9 0.2 3.5 l-0.3 2.8 -0.7 -3z"/>
  <path d="M322.4 327.6 c-0.8 -3.2 0.3 -6.6 2.2 -6.6 1 0 1.4 1.3 1.4 4.5 0 3.3 -0.4 4.5 -1.5 4.5 -0.8 0 -1.7 -1.1 -2.1 -2.4z"/>
  <path d="M53 325.5 c0 -3.3 0.2 -3.5 3.4 -3.5 l3.4 0 -3.1 3.5 c-1.7 1.9 -3.2 3.5 -3.4 3.5 -0.2 0 -0.3 -1.6 -0.3 -3.5z"/>
  <path d="M173 324.5 c0 -3.9 1.4 -4.6 3 -1.6 1.6 3.1 1.2 5.1 -1 5.1 -1.6 0 -2 -0.7 -2 -3.5z"/>
  <path d="M304 324 c0 -4.8 2.5 -5.6 3.5 -1 0.7 3.3 0.1 5 -2.1 5 -1 0 -1.4 -1.2 -1.4 -4z"/>
  <path d="M362.4 319.9 c0.3 -1.7 0.6 -6.5 0.6 -10.5 0 -5.6 0.3 -7.4 1.4 -7.4 1.8 0 2.6 3.1 2.6 11.2 0 8 -0.6 9.8 -3.2 9.8 -1.8 0 -2 -0.5 -1.4 -3.1z"/>
  <path d="M170 313.5 c0 -3.9 1.4 -4.6 3 -1.6 1.6 3.1 1.2 5.1 -1 5.1 -1.6 0 -2 -0.7 -2 -3.5z"/>
  <path d="M322.9 314.8 c-0.1 -2.3 -0.2 -7.3 0 -9 0 -1 0.8 -1.8 1.6 -1.8 1.2 0 1.5 1.3 1.5 6 0 4.7 -0.3 6 -1.5 6 -0.8 0 -1.5 -0.6 -1.6 -1.2z"/>
  <path d="M303 309 c0 -2.9 0.4 -4 1.5 -4 1.5 0 1.6 0.3 1.9 5.3 0.1 2 -0.3 2.7 -1.6 2.7 -1.4 0 -1.8 -0.8 -1.8 -4z"/>
  <path d="M168 305.3 c0 -3.5 0 -3.6 2 -1.8 1.1 1 2 2.6 2 3.7 0 1.1 -0.7 1.8 -2 1.8 -1.6 0 -2 -0.7 -2 -3.7z"/>
  <path d="M85 304.6 c0 -1.9 0.4 -2.3 1.9 -1.9 1.1 0.3 2.7 1.4 3.7 2.4 1.7 1.8 1.6 1.9 -1.9 1.9 -3.2 0 -3.7 -0.3 -3.7 -2.4z"/>
  <path d="M45.2 304.8 c0.3 -0.7 1.9 -1.8 3.6 -2.5 3.1 -1.3 3.2 -1.2 3.2 1.2 0 2.2 -0.4 2.5 -3.6 2.5 -2.3 0 -3.4 -0.4 -3.2 -1.2z"/>
  <path d="M343.7 290.4 c-0.4 -0.4 -0.7 -6.1 -0.7 -12.6 0 -11.1 0.1 -11.8 2 -11.8 1.9 0 2 0.7 2 10.8 0 7.2 -0.4 11.4 -1.3 12.6 -0.7 0.9 -1.6 1.4 -2 1z"/>
  <path d="M219.4 287.5 l-2.9 -2.5 3.8 0 c3.3 0 3.7 0.3 3.7 2.5 0 3.1 -0.9 3.1 -4.6 0z"/>
  <path d="M55.2 284.8 c-1.9 -1.9 -1.5 -4.8 0.8 -4.8 1.6 0 2 0.7 2 3 0 3.2 -0.9 3.7 -2.8 1.8z"/>
  <path d="M270 282 c0 -3.3 0.3 -4 2 -4 1.7 0 2 0.7 2 4 0 3.3 -0.3 4 -2 4 -1.7 0 -2 -0.7 -2 -4z"/>
  <path d="M39 281.5 c0 -2.8 0.4 -3.5 2 -3.5 2.1 0 2.4 1 1.4 4.8 -1 3.6 -3.4 2.7 -3.4 -1.3z"/>
  <path d="M174 278.5 c0 -2.8 0.4 -3.5 2 -3.5 1.5 0 1.9 0.5 1.6 2.3 -0.3 1.2 -0.5 2.8 -0.5 3.5 -0.1 0.6 -0.8 1.2 -1.6 1.2 -1 0 -1.5 -1.1 -1.5 -3.5z"/>
  <path d="M162.6 278.8 c-1 -3.8 -0.7 -4.8 1.4 -4.8 1.6 0 2 0.7 2 3.5 0 4 -2.4 4.9 -3.4 1.3z"/>
  <path d="M332 279.8 c-0.1 -0.2 -0.3 -3.6 -0.6 -7.5 -0.6 -6.9 -0.5 -7.3 1.5 -7.3 1.9 0 2.1 0.5 2.1 7.5 0 6 -0.3 7.5 -1.5 7.5 -0.8 0 -1.5 -0.1 -1.5 -0.2z"/>
  <path d="M187.6 275.8 c-1 -3.8 -0.7 -4.8 1.4 -4.8 1.6 0 2 0.7 2 3.5 0 4 -2.4 4.9 -3.4 1.3z"/>
  <path d="M256 274.5 c0 -2.8 0.4 -3.5 2 -3.5 2 0 2.2 1.5 0.5 5.3 -1.2 2.8 -2.5 1.9 -2.5 -1.8z"/>
  <path d="M293.6 275.1 c-0.3 -0.4 -1 -2 -1.5 -3.5 -1 -2.4 -0.8 -2.6 1.4 -2.6 2.2 0 2.5 0.4 2.5 3.5 0 3.3 -1.2 4.6 -2.4 2.6z"/>
  <path d="M303 271 c0 -1.1 -0.4 -2 -1 -2 -0.5 0 -1 -1.6 -1 -3.5 0 -4.4 2.6 -4.8 3.5 -0.5 0.4 1.6 1.1 3.2 1.6 3.5 1.8 1.2 1 4.5 -1.1 4.5 -1.3 0 -2 -0.7 -2 -2z"/>
  <path d="M150 266.5 c0 -4.6 0.3 -5.5 1.8 -5.5 2 0 2.5 2.6 1.7 7.8 -0.4 1.9 -1.2 3.2 -2 3.2 -1.1 0 -1.5 -1.4 -1.5 -5.5z"/>
  <path d="M258 264.5 c0 -2.8 0.4 -3.5 2 -3.5 2.1 0 2.4 1 1.4 4.8 -1 3.6 -3.4 2.7 -3.4 -1.3z"/>
  <path d="M70 261.5 c0 -2.8 0.4 -3.5 1.9 -3.5 1.1 0 2.1 -0.6 2.4 -1.2 0.2 -0.7 0.2 0.1 -0.1 1.7 -1 6.6 -4.2 8.9 -4.2 3z"/>
  <path d="M127 261 c0 -1.3 0.7 -2 2 -2 1.3 0 2 0.7 2 2 0 1.3 -0.7 2 -2 2 -1.3 0 -2 -0.7 -2 -2z"/>
  <path d="M77.6 259.8 c-1 -3.8 -0.7 -4.8 1.4 -4.8 1.6 0 2 0.7 2 3.5 0 4 -2.4 4.9 -3.4 1.3z"/>
  <path d="M270.7 258.8 c-0.4 -1.3 -0.6 -8.5 -0.6 -16 0 -12.9 0.2 -13.8 2 -13.8 1.8 0 1.9 0.9 1.9 16 0 13 -0.3 16 -1.4 16 -0.8 0 -1.6 -1 -1.9 -2.2z"/>
  <path d="M305 258 c0 -2.5 0.4 -3 2.5 -3 2.9 0 3.1 0.7 0.9 3.8 -2.1 3 -3.4 2.8 -3.4 -0.8z"/>
  <path d="M327.6 254.1 c-0.3 -0.4 -1 -2 -1.5 -3.5 -1 -2.4 -0.8 -2.6 1.4 -2.6 2.2 0 2.5 0.4 2.5 3.5 0 3.3 -1.2 4.6 -2.4 2.6z"/>
  <path d="M350 246.6 c0 -3.2 0.3 -3.6 2.5 -3.6 2.4 0 2.5 0.1 1.2 3.2 -1.9 4.6 -3.7 4.8 -3.7 0.4z"/>
  <path d="M337.1 245.3 l0 -2.8 1.1 2.5 1.1 2.5 1 -3.2 c1.4 -4.5 3.7 -4.3 3.7 0.2 0 3.3 -0.2 3.5 -3.5 3.5 -3.2 0 -3.5 -0.3 -3.4 -2.7z"/>
  <path d="M196 240.5 c0 -4 2.4 -4.9 3.4 -1.2 1 3.7 0.7 4.7 -1.4 4.7 -1.6 0 -2 -0.7 -2 -3.5z"/>
  <path d="M50.6 240.8 c-0.3 -1.3 -0.6 -3.5 -0.6 -5 0 -1.6 -0.4 -2.8 -1 -2.8 -0.5 0 -1 -1.6 -1 -3.5 0 -3.9 1.6 -4.6 2.9 -1.2 1.5 3.9 3.2 9.7 3.7 12.2 0.3 1.9 0 2.5 -1.5 2.5 -1.1 0 -2.1 -0.9 -2.5 -2.2z"/>
  <path d="M354 236.5 c0 -1.9 0.5 -3.5 1 -3.5 0.6 0 1 -1.1 1 -2.5 0 -1.4 0.5 -2.5 1 -2.5 0.6 0 1 -1.1 1 -2.5 0 -1.8 0.5 -2.5 2 -2.5 2.1 0 2.6 1.9 1.1 4.8 -0.5 0.9 -1.3 2.8 -1.8 4.2 -3.5 8.7 -5.3 10.2 -5.3 4.5z"/>
  <path d="M366.9 235.8 c0.3 -1.3 1.5 -4.9 2.6 -8.1 1.7 -5.3 1.8 -5.9 0.2 -9.1 -1.1 -2.3 -2.7 -3.8 -5.1 -4.7 -4.4 -1.6 -4.8 -3.9 -0.7 -3.9 3.9 0 6.1 0.9 6.1 2.5 0 0.7 0.9 1.5 2 1.8 1.8 0.4 2 1.4 2 7.4 0 8.9 -2.5 16.3 -5.6 16.3 -1.8 0 -2.1 -0.4 -1.5 -2.2z"/>
  <path d="M158 231.5 c0 -4 2.4 -4.9 3.4 -1.2 1 3.7 0.7 4.7 -1.4 4.7 -1.6 0 -2 -0.7 -2 -3.5z"/>
  <path d="M250.3 229.5 c-0.7 -0.8 -1.3 -2.6 -1.3 -4 0 -2.5 0.1 -2.5 2.4 -1 1.4 0.9 3.2 2.7 4.1 4.1 1.5 2.3 1.5 2.4 -1.2 2.4 -1.6 -0.1 -3.4 -0.7 -4 -1.5z"/>
  <path d="M217 228 c0 -1.4 9 -7 11.2 -7 1.1 0 1.8 0.7 1.8 2 0 1.6 -0.7 2 -3.5 2 -2.8 0 -3.5 0.4 -3.5 2 0 1.6 -0.7 2 -3 2 -1.6 0 -3 -0.5 -3 -1z"/>
  <path d="M71 226.4 c0 -2.1 1.8 -5.4 3 -5.4 0.6 0 1 1.6 1 3.5 0 2.8 -0.4 3.5 -2 3.5 -1.1 0 -2 -0.7 -2 -1.6z"/>
  <path d="M270 225.2 c0 -1.9 1.8 -4.2 3.2 -4.2 0.4 0 0.8 1.4 0.8 3 0 2.3 -0.4 3 -2 3 -1.3 0 -2 -0.7 -2 -1.8z"/>
  <path d="M142 224 c0 -1.1 0.2 -2 0.4 -2 0.2 0 1.1 -0.3 2 -0.6 1.2 -0.5 1.6 0 1.6 2 0 1.9 -0.5 2.6 -2 2.6 -1.3 0 -2 -0.7 -2 -2z"/>
  <path d="M45 223 c0 -2.4 3.5 -2.8 4.4 -0.4 0.9 2.3 0.8 2.4 -1.9 2.4 -1.8 0 -2.5 -0.5 -2.5 -2z"/>
  <path d="M154 222.9 c0 -1.5 0.5 -2 2.2 -1.7 3.4 0.5 3.7 3.8 0.4 3.8 -2 0 -2.6 -0.5 -2.6 -2.1z"/>
  <path d="M337.1 216.9 c-1.1 -1.5 -3.4 -3 -5.1 -3.4 -1.7 -0.4 -3 -1.3 -3 -2.2 0 -1.2 0.9 -1.4 4.8 -0.9 5.9 0.7 5.8 0.7 11 0 3.4 -0.5 4.2 -0.3 4.2 1 0 0.9 -0.7 1.6 -1.6 1.6 -0.9 0 -3.1 1.5 -4.9 3.3 l-3.4 3.4 -2 -2.8z"/>
  <path d="M304.3 215.3 c-4 -2.7 -3.4 -3.1 9 -4.9 3 -0.5 3.7 -0.3 3.7 1 0 0.9 -0.6 1.6 -1.4 1.6 -0.7 0 -2.5 0.9 -3.9 2 -3 2.4 -4.4 2.4 -7.4 0.3z"/>
  <path d="M348.5 158.3 c-0.4 -2.1 -0.9 -5.1 -1.1 -6.8 -1.4 -8 -4.7 -15.6 -9 -20.4 -3.8 -4.2 -4.4 -5.5 -4.4 -9.3 0 -6.1 2 -7.8 9.2 -7.8 5.1 0 5.8 0.3 8.7 3.5 1.8 2.1 3.9 6.4 5.2 10.7 2.1 6.9 2.1 7.2 0.4 10.4 -2.4 4.5 -1 8.5 3.3 9.8 3.5 1 4.4 3.6 1.2 3.6 -1.7 0 -2 0.7 -2 5 l0 5 -5.5 0 -5.4 0 -0.6 -3.7z"/>
  <path d="M365 150.7 c0 -0.6 2.9 -2.2 6.5 -3.3 l6.5 -2.2 0 2.4 c0 2 -0.5 2.4 -3 2.4 -1.6 0 -3 0.5 -3 1 0 0.6 -1.6 1 -3.5 1 -2.1 0 -3.5 -0.5 -3.5 -1.3z"/>
 </g>
 <g fill="#b63324">
  <path d="M366 238.7 c0 -0.2 1.1 -3.1 2.5 -6.5 3.5 -8.6 3.3 -13.3 -0.6 -16.6 -2.8 -2.4 -3.8 -2.6 -13.1 -2.6 -9.6 0 -10 0.1 -12.8 2.9 l-2.9 2.9 -1.4 -2.2 c-1.2 -1.8 -1.2 -2.3 -0.1 -3.4 0.7 -0.6 1.7 -1.2 2.3 -1.2 0.5 0 1.1 -0.6 1.3 -1.2 0.3 -0.9 4 -1.4 12.4 -1.6 13.3 -0.3 18.6 1.2 19.2 5.6 0.2 1.2 0.8 2.2 1.3 2.2 1.7 0 0.9 9.4 -1.3 15.8 -1.8 5.2 -2.5 6.2 -4.5 6.2 -1.3 0 -2.3 -0.1 -2.3 -0.3z"/>
  <path d="M304.3 215.2 c-7.4 -3.5 -3.1 -4.9 18.5 -5.8 l12.2 -0.6 0 2.4 c0 2.3 -0.1 2.3 -10.7 2 -9.5 -0.3 -10.9 -0.1 -13.4 1.7 -1.6 1.2 -2.9 2 -3.1 2 -0.2 -0.1 -1.8 -0.9 -3.5 -1.7z"/>
  <path d="M344.4 161.2 c-8.6 -3 -10.4 -4.7 -10.4 -9.2 l0 -4 6 0 6 0 0 -3.5 c0 -2.4 0.5 -3.5 1.4 -3.5 1.4 0 2.2 2.9 4.1 14.3 0.5 3.1 1 3.7 3 3.7 2.3 0 2.5 -0.3 2.5 -5.3 l0 -5.2 6.8 0 c4.8 0 7.9 -0.6 11 -2.1 l4.2 -2.1 0 2.7 c0 2.3 -0.5 3 -2.9 3.5 -2.4 0.5 -3 1.2 -3.3 3.8 -0.3 2.7 -1 3.6 -5.1 5.6 -6.6 3.2 -16.4 3.8 -23.3 1.3z"/>
  <path d="M342 135.6 c0 -0.8 -0.5 -1.6 -1.1 -1.8 -0.6 -0.2 -0.9 -1.9 -0.7 -3.8 l0.3 -3.5 3.3 4.4 c3.9 5.3 4 6.1 0.7 6.1 -1.5 0 -2.5 -0.6 -2.5 -1.4z"/>
  <path d="M339 115.3 c0 -2 0.5 -2.3 3.5 -2.3 2.8 0 3.5 0.4 3.5 1.9 0 1.4 -0.9 2 -3.5 2.3 -3.1 0.4 -3.5 0.1 -3.5 -1.9z"/>
 </g>
 <g fill="#0077bf">
  <path d="M52.1 409.4 c-5.6 -1.5 -11 -4.3 -13.1 -6.9 -1.1 -1.3 -0.7 -1.5 2.4 -1.5 2 0 3.6 0.4 3.6 0.9 0 0.5 1.1 1.2 2.5 1.5 1.4 0.4 2.5 1 2.5 1.5 0 0.5 2.7 1.2 6 1.6 5 0.6 6 1 6 2.6 0 2.3 -2.2 2.4 -9.9 0.3z"/>
  <path d="M70 409.1 c0 -1.5 0.6 -2.1 2.3 -2.1 2.6 0 12.1 -3.2 12.5 -4.2 0.2 -0.5 0.7 -0.8 1.2 -0.8 1.2 0 9 -7.9 9 -9 0 -0.6 1.1 -1 2.5 -1 3 0 3.1 0.6 0.7 4.2 -4.8 7.3 -14.1 13 -23.4 14.3 -4.4 0.7 -4.8 0.6 -4.8 -1.4z"/>
  <path d="M112.6 408.1 c-0.3 -0.4 1.1 -6.8 3 -14.2 2 -7.4 3.7 -14.1 3.9 -14.9 0.2 -0.8 4.2 -16.3 9 -34.5 4.7 -18.1 8.8 -34.3 9.1 -36 0.3 -1.6 1.4 -3.9 2.5 -5 1.9 -1.9 1.9 -1.9 1.9 1 0 3.8 -13.1 54.9 -14.2 55.3 -0.4 0.2 -0.8 1.5 -0.8 2.9 0 1.4 -2.5 12.1 -5.5 23.8 -3 11.8 -5.5 21.6 -5.5 21.9 0 0.9 -2.8 0.7 -3.4 -0.3z"/>
  <path d="M173.2 407.3 c-0.6 -1 -1.3 -3.7 -1.7 -6 -0.6 -3.8 -0.5 -4.3 1.3 -4.3 1.4 0 2.1 0.9 2.6 3.1 1.4 7.2 0.1 11.6 -2.2 7.2z"/>
  <path d="M205.7 407.6 c-0.8 -2.1 0.4 -5.6 1.9 -5.6 0.9 0 1.4 1.2 1.4 3.5 0 3.6 -2.2 5 -3.3 2.1z"/>
  <path d="M289.7 408.3 c-0.4 -0.3 -0.7 -1.9 -0.7 -3.5 0 -2.1 0.5 -2.8 2 -2.8 1.6 0 2 0.7 2 3.5 0 3.3 -1.6 4.6 -3.3 2.8z"/>
  <path d="M309 402.6 c0 -5 0.3 -6.6 1.4 -6.6 3 0 3.3 12.2 0.4 12.8 -1.6 0.3 -1.8 -0.5 -1.8 -6.2z"/>
  <path d="M322.9 407.8 c-0.5 -3.9 -0.6 -36.7 -0.2 -38.5 0.3 -1.3 1.1 -2.3 1.9 -2.3 1.1 0 1.4 3.3 1.4 17.9 0 9.8 0.3 19.3 0.6 21 0.6 2.7 0.4 3.1 -1.5 3.1 -1.1 0 -2.2 -0.6 -2.2 -1.2z"/>
  <path d="M364 407.6 c0 -2.7 1.2 -4.6 2.9 -4.6 1.2 0 1.7 0.7 1.5 2.3 -0.1 1.2 -0.3 2.5 -0.3 3 -0.2 1.4 -4.1 0.7 -4.1 -0.7z"/>
  <path d="M134 405.8 c0 -1.4 0.5 -5 1.1 -8.1 1 -4.6 1.6 -5.7 3.1 -5.7 1.8 0 1.9 0.5 1.3 4.3 -1.1 6.2 -2.8 11 -4.2 11.5 -0.8 0.2 -1.3 -0.6 -1.3 -2z"/>
  <path d="M188.7 388.8 c-5 -20.5 -5.5 -23.8 -3.3 -23.8 0.9 0 2.9 6.2 6.5 20.5 2.8 11.2 5.1 20.9 5.1 21.5 0 0.5 -0.8 1 -1.8 1 -1.5 0 -2.6 -3.3 -6.5 -19.2z"/>
  <path d="M226 399.5 c0 -4.8 0.3 -5.5 1.9 -5.5 2.1 0 2.4 1.5 1.5 7.8 -0.3 1.9 -1.1 3.2 -1.9 3.2 -1.1 0 -1.5 -1.4 -1.5 -5.5z"/>
  <path d="M252.4 402.4 c-2.5 -0.6 -3.7 -3.8 -13 -35.8 -3.2 -10.9 -5.9 -19.5 -6 -19 -0.1 0.5 -0.5 2.6 -0.9 4.7 -0.9 5.4 -3.5 5 -3.5 -0.5 0 -7.3 0.8 -8.8 4.5 -8.8 l3.2 0 7.7 26.3 c4.2 14.4 7.6 26.7 7.6 27.3 0 0.7 0.7 1.5 1.6 1.8 2.8 1.1 10.1 0.6 11.2 -0.6 0.5 -0.7 2.9 -7.4 5.2 -14.8 2.4 -7.4 4.6 -13.7 5 -14 0.4 -0.3 1 -2.5 1.3 -4.9 0.3 -2.4 1 -4.7 1.5 -5 0.5 -0.3 1.2 -2.7 1.6 -5.3 0.4 -2.7 1.1 -4.8 1.7 -4.8 0.5 0 0.9 -1.3 0.9 -3 0 -2.7 0.3 -3 3.4 -3 3.3 0 3.3 0.1 4 5.3 1 8.8 0.8 12.7 -0.9 12.7 -1.3 0 -2.9 -5 -2.5 -7.5 0.2 -0.6 0.2 -2.3 0.1 -4 -0.2 -2.6 -0.3 -2.7 -1.1 -1 -0.4 1.1 -2.2 6.5 -3.9 12 -1.7 5.5 -5.1 16.8 -7.6 25 -2.5 8.3 -5 15.4 -5.5 15.9 -0.9 0.9 -12.4 1.7 -15.6 1z"/>
  <path d="M33.9 397 c-5.3 -7.1 -7.9 -14.1 -9.9 -27 -1.4 -9.2 -1.3 -10 1 -10 1.6 0 2 0.7 2 3.8 0 7.7 6.2 27 9.3 29.3 0.5 0.3 0.7 2.1 0.5 4 l-0.3 3.4 -2.6 -3.5z"/>
  <path d="M206 395.8 c0 -4.8 1 -7.8 2.6 -7.8 1 0 1.4 1.5 1.4 5.5 0 4.8 -0.2 5.5 -2 5.5 -1.6 0 -2 -0.7 -2 -3.2z"/>
  <path d="M288.6 394.8 c-0.3 -1.3 -0.6 -4 -0.6 -6 0 -3.1 0.4 -3.8 2 -3.8 1.8 0 2 0.7 2 6 0 4.4 -0.4 6 -1.4 6 -0.7 0 -1.6 -1 -2 -2.2z"/>
  <path d="M365 395 c0 -1.1 -0.4 -2 -1 -2 -0.5 0 -1 -0.9 -1 -2 0 -1.3 0.7 -2 2 -2 2.4 0 4.1 2.9 3.3 5.8 -0.7 2.8 -3.3 2.9 -3.3 0.2z"/>
  <path d="M60 392 c0 -0.5 -0.9 -1 -2 -1 -1.5 0 -2 -0.7 -2 -2.5 0 -2 -0.5 -2.5 -2.5 -2.5 -2.2 0 -2.5 -0.4 -2.5 -3.5 0 -2.3 -0.5 -3.5 -1.4 -3.5 -1.5 0 -3.6 -9.6 -3.6 -16.3 0 -5.1 2.7 -5 3.5 0.1 2.8 19 6 24.7 15.3 26.7 4.7 1 4.2 3.5 -0.8 3.5 -2.2 0 -4 -0.4 -4 -1z"/>
  <path d="M70 391.1 c0 -0.5 1.6 -1.8 3.5 -3 l3.5 -2 0 2.9 c0 2.8 -0.3 3 -3.5 3 -1.9 0 -3.5 -0.4 -3.5 -0.9z"/>
  <path d="M99.4 386.8 c1.7 -11.8 1.8 -11.8 3.8 -11.8 2.2 0 2.2 0.2 0.3 9.4 -1.5 7.2 -5.2 9.3 -4.1 2.4z"/>
  <path d="M227 384 c0 -5.3 0.2 -6 2 -6 1.6 0 2 0.6 1.9 3.3 -0.2 5.8 -1 8.7 -2.5 8.7 -1 0 -1.4 -1.5 -1.4 -6z"/>
  <path d="M308 385 c0 -4.5 2.3 -5.7 3.4 -1.7 1.1 4.1 0.7 5.7 -1.4 5.7 -1.7 0 -2 -0.7 -2 -4z"/>
  <path d="M78.2 384.3 c3.5 -7.4 4.8 -8.1 4.8 -2.8 0 3.1 -0.3 3.5 -2.6 3.5 -1.4 0 -2.4 -0.3 -2.2 -0.7z"/>
  <path d="M207 381.8 c0 -3.9 1.2 -6.8 2.6 -6.8 1 0 1.4 1.3 1.4 4.5 0 3.8 -0.3 4.5 -2 4.5 -1.4 0 -2 -0.7 -2 -2.2z"/>
  <path d="M287.6 375.8 c-0.3 -1.3 -0.6 -3.8 -0.6 -5.5 0 -2.6 0.4 -3.3 2 -3.3 1.8 0 2 0.7 2 5.5 0 4 -0.4 5.5 -1.4 5.5 -0.7 0 -1.6 -1 -2 -2.2z"/>
  <path d="M307 372 c0 -3.6 0.4 -5 1.4 -5 1.5 0 2.6 3 2.6 7.3 0 2 -0.5 2.7 -2 2.7 -1.7 0 -2 -0.7 -2 -5z"/>
  <path d="M81 372.5 c0 -2.4 -0.5 -3.5 -1.5 -3.5 -0.8 0 -1.5 -0.7 -1.5 -1.5 0 -1 1.1 -1.5 3.5 -1.5 l3.5 0 0 5 c0 4.3 -0.3 5 -2 5 -1.6 0 -2 -0.7 -2 -3.5z"/>
  <path d="M102 364.1 c0 -5.4 -0.3 -11.3 -0.6 -13 -0.6 -2.6 -0.4 -3.1 1.4 -3.1 2.7 0 3.2 1.8 3.2 12.3 0 10.5 -0.6 13.7 -2.6 13.7 -1.1 0 -1.4 -2.1 -1.4 -9.9z"/>
  <path d="M228 368 c0 -5.3 0.2 -6 2 -6 1.6 0 2 0.7 2 3.8 0 5.2 -1 8.2 -2.6 8.2 -1 0 -1.4 -1.6 -1.4 -6z"/>
  <path d="M142 369.8 c0 -1.8 2.1 -12.9 4.7 -24.5 l4.7 -21.3 3.2 0 3.2 0 3.1 13.1 c3.5 14.6 3.8 17.9 1.7 17.9 -1 0 -2.4 -4.1 -4.7 -13.7 -1.8 -7.6 -3.5 -13.1 -3.7 -12.1 -0.2 0.9 -2.3 10.3 -4.6 20.8 -4.1 18.2 -4.3 19.3 -2.5 19.7 3.4 0.9 2.2 3.3 -1.6 3.3 -3.3 0 -3.5 -0.2 -3.5 -3.2z"/>
  <path d="M208 370.3 c0 -4.3 1.1 -7.3 2.6 -7.3 1 0 1.4 1.4 1.4 5 0 4.3 -0.3 5 -2 5 -1.5 0 -2 -0.7 -2 -2.7z"/>
  <path d="M66 367.1 c-1.1 -2.1 -1.4 -13.2 -0.4 -16.8 0.4 -1.3 1.4 -2.3 2.4 -2.3 1.6 0 1.7 0.8 1.2 8.5 -0.3 6 -0.1 8.5 0.7 8.5 0.6 0 1.1 0.9 1.1 2 0 2.6 -3.6 2.7 -5 0.1z"/>
  <path d="M163.1 364 c-1.4 -6.7 -1.4 -7 0.8 -7 1.8 0 3.1 3.9 3.1 9.8 0 4.4 -2.8 2.3 -3.9 -2.8z"/>
  <path d="M342 365.5 l0 -3.5 11 0 c6.1 0 11 0.4 11 0.8 0 2.4 -3 3.2 -11.2 3.2 -7.2 0 -8.8 0.3 -8.8 1.5 0 0.8 -0.4 1.5 -1 1.5 -0.5 0 -1 -1.6 -1 -3.5z"/>
  <path d="M255.6 365.4 c-0.3 -0.9 -0.6 -2.9 -0.6 -4.5 0 -3.7 2.5 -3.9 3.5 -0.2 0.5 2.1 0.8 2.4 1.5 1.3 0.7 -1.4 10 -31.7 13.7 -45 1.8 -6.4 3 -9 4.3 -9 0.6 0 1 1.1 1 2.5 0 3.4 -2.2 11.5 -3.2 11.5 -0.4 0 -0.8 1.1 -0.8 2.4 0 2.2 -5.8 22.9 -10.1 36.4 -2 5.9 -2.2 6.2 -5.4 6.2 -2.1 0 -3.5 -0.6 -3.9 -1.6z"/>
  <path d="M180.2 354.8 c-2.6 -10.7 -2.8 -13.8 -0.8 -13.8 0.9 0 2.2 3.5 4 10.5 3.1 12.4 3.1 12.5 0.8 12.5 -1.5 0 -2.2 -1.8 -4 -9.2z"/>
  <path d="M306 357.5 c0 -4.2 0.3 -5.5 1.5 -5.5 1.6 0 1.7 0.2 2 6.8 0.2 3.5 -0.1 4.2 -1.6 4.2 -1.6 0 -1.9 -0.8 -1.9 -5.5z"/>
  <path d="M209 357.3 c0 -4.3 1.1 -7.3 2.6 -7.3 1 0 1.4 1.4 1.4 5 0 4.3 -0.3 5 -2 5 -1.5 0 -2 -0.7 -2 -2.7z"/>
  <path d="M251.2 350.5 c-0.7 -2.5 -1.2 -5.6 -1.2 -7 0 -1.4 -0.4 -2.5 -1 -2.5 -0.5 0 -1 -1.5 -1 -3.4 0 -1.9 -0.4 -3.6 -0.8 -3.8 -0.9 -0.3 -9.2 -27.8 -9.2 -30.3 0 -1 0.7 -1.5 1.7 -1.3 1.3 0.2 2.8 4 6.1 15.3 2.3 8.3 5.4 18.6 6.7 23 3.9 12.6 4.1 14.5 1.8 14.5 -1.4 0 -2.2 -1.2 -3.1 -4.5z"/>
  <path d="M23.5 347.8 c0.4 -3.5 1.3 -9.2 2 -12.8 4.2 -20.5 16.5 -33.2 34.4 -35.6 4.7 -0.6 5.1 -0.5 5.1 1.5 0 1.5 -0.6 2.1 -2.2 2.1 -3.5 0 -12.8 2.4 -12.8 3.2 0 0.5 -1.3 0.8 -3 0.8 -2.2 0 -3 0.5 -3 1.8 0 1.9 -4.1 6.2 -5.9 6.2 -0.6 0 -1.1 0.9 -1.1 2 0 1.1 -0.4 2 -0.9 2 -0.5 0 -1.2 1.1 -1.5 2.4 -0.3 1.4 -1.2 3.1 -1.9 3.8 -1.6 1.7 -4.6 14 -5.4 22.4 -0.5 5.5 -0.9 6.4 -2.5 6.4 -1.8 0 -1.9 -0.5 -1.3 -6.2z"/>
  <path d="M46 348.6 c0 -1.8 0.3 -5.4 0.6 -8 0.5 -3.5 1.1 -4.6 2.5 -4.6 1.8 0 1.9 2.6 0.3 12.8 -0.7 4.4 -3.4 4.3 -3.4 -0.2z"/>
  <path d="M210 344.3 c0 -4.3 1.1 -7.3 2.6 -7.3 1 0 1.4 1.4 1.4 5 0 4.3 -0.3 5 -2 5 -1.5 0 -2 -0.7 -2 -2.7z"/>
  <path d="M322.8 345.3 c-0.6 -2.8 0.2 -5.3 1.8 -5.3 0.9 0 1.4 1.1 1.4 3.5 0 3.7 -2.4 5 -3.2 1.8z"/>
  <path d="M305 341 c0 -3.6 0.4 -5 1.4 -5 1.5 0 2.6 3 2.6 7.3 0 2 -0.5 2.7 -2 2.7 -1.7 0 -2 -0.7 -2 -5z"/>
  <path d="M174.6 333.5 c-2 -7.9 -2 -11.5 -0.3 -11.5 0.9 0 2.2 3.1 3.6 8.3 2.6 9.9 2.6 9.7 0.2 9.7 -1.5 0 -2.2 -1.4 -3.5 -6.5z"/>
  <path d="M81.8 336.3 c-0.9 -1 -2.1 -3.5 -2.8 -5.6 -1.6 -5.1 -5.4 -9.4 -9 -10.2 -4.3 -0.9 -3.9 -3.5 0.5 -3.5 1.9 0 3.5 0.5 3.5 1 0 0.6 0.9 1 2.1 1 1.2 0 2.3 0.8 2.6 2 0.3 1.1 0.9 2 1.4 2 0.4 0 1.6 2.5 2.6 5.6 l1.7 5.6 4.6 -0.7 c2.5 -0.3 6.2 -1.1 8.2 -1.6 3.4 -0.9 3.6 -1.1 2.9 -3.7 -1.9 -6.3 -5.7 -13.8 -8.4 -16.2 -2.1 -1.9 -2.8 -3.3 -2.5 -5.3 l0.3 -2.8 3.7 3.1 c6.2 5.2 13.6 23.7 10.6 26.6 -0.7 0.7 -5.3 2 -10.3 2.8 -11 1.9 -9.9 2 -11.7 -0.1z"/>
  <path d="M322.9 333.8 c-0.1 -2.1 -0.2 -10.1 0 -12 0 -1 0.8 -1.8 1.6 -1.8 1.2 0 1.5 1.5 1.5 7.5 0 6 -0.3 7.5 -1.5 7.5 -0.8 0 -1.5 -0.6 -1.6 -1.2z"/>
  <path d="M211 329.3 c0 -3.4 1.2 -6.3 2.6 -6.3 1 0 1.4 1.3 1.4 4 0 3.3 -0.3 4 -2 4 -1.2 0 -2 -0.7 -2 -1.7z"/>
  <path d="M52 326.5 c0 -2.8 0.4 -3.5 2 -3.5 1.3 0 2 -0.7 2 -1.9 0 -2.1 1.9 -3.1 6.1 -3.1 4 0 3.6 1.2 -1.1 3.9 -2.2 1.2 -4.7 3.5 -5.7 5.1 -2.3 3.9 -3.3 3.8 -3.3 -0.5z"/>
  <path d="M304 326 c0 -2.9 0.4 -4 1.5 -4 0.8 0 1.6 0.6 1.6 1.3 0.1 0.6 0.3 2.4 0.5 4 0.2 2.1 -0.1 2.7 -1.7 2.7 -1.6 0 -1.9 -0.7 -1.9 -4z"/>
  <path d="M363 318.5 c0 -3.7 2.4 -5 3.2 -1.7 0.6 2.7 -0.2 5.2 -1.8 5.2 -0.9 0 -1.4 -1.1 -1.4 -3.5z"/>
  <path d="M171 317.5 c0 -4 2.4 -4.9 3.4 -1.2 1 3.7 0.7 4.7 -1.4 4.7 -1.6 0 -2 -0.7 -2 -3.5z"/>
  <path d="M212 316.3 c0 -3.4 1.2 -6.3 2.6 -6.3 1 0 1.4 1.3 1.4 4 0 3.3 -0.3 4 -2 4 -1.2 0 -2 -0.7 -2 -1.7z"/>
  <path d="M363 311.1 c0 -1.6 -0.3 -4.3 -0.6 -6 -0.6 -2.7 -0.4 -3.1 1.5 -3.1 2.1 0 2.4 1 2.3 7 0 4.6 -0.2 5 -1.7 5 -1 0 -1.5 -1 -1.5 -2.9z"/>
  <path d="M169 309.5 c0 -2.4 0.5 -3.5 1.5 -3.5 0.8 0 1.5 0.6 1.6 1.3 0 0.6 0.2 2.2 0.5 3.5 0.3 1.7 -0.1 2.2 -1.6 2.2 -1.6 0 -2 -0.7 -2 -3.5z"/>
  <path d="M302 304.4 c0 -3.3 3.3 -3 3.8 0.4 0.3 1.7 -0.2 2.2 -1.7 2.2 -1.6 0 -2.1 -0.6 -2.1 -2.6z"/>
  <path d="M213.7 304 c0.3 -1.1 1.4 -2 2.4 -2 1.2 0 1.9 0.7 1.9 2 0 1.4 -0.7 2 -2.4 2 -1.9 0 -2.3 -0.4 -1.9 -2z"/>
  <path d="M323 304 c0 -1.3 0.7 -2 2 -2 1.3 0 2 0.7 2 2 0 1.3 -0.7 2 -2 2 -1.3 0 -2 -0.7 -2 -2z"/>
  <path d="M78.5 304 c-1.1 -0.5 -3.5 -0.9 -5.2 -0.9 -2.7 -0.1 -3.3 -0.5 -3.3 -2.2 0 -1.9 0.4 -2 5.3 -1.4 6.1 0.8 11.7 3 11.7 4.4 0 1.3 -5.6 1.3 -8.5 0.1z"/>
  <path d="M414.5 296.3 c-6.5 -1.7 -28.5 -9.4 -43.5 -15.2 -3.1 -1.2 -7.8 -2.1 -10.7 -2.1 l-5.3 0 0 -7 c0 -5.8 0.7 -8.7 4.1 -17.2 5.4 -13.7 8.8 -20.8 10 -20.8 2.1 0 0.6 6.4 -4.5 19.1 l-5.4 13.4 28.7 0.5 c15.7 0.3 30 0.2 31.7 -0.2 1.6 -0.5 4.3 -2.2 6 -3.9 l2.9 -3 0.3 -78 c0.3 -86.3 0.6 -82.1 -6.2 -85.3 -3.2 -1.5 -10 -1.6 -73 -1.4 l-69.6 0.3 -3.2 3.3 -3.3 3.2 0 55.5 0 55.5 -2.1 0 c-2.6 0 -7.3 3.6 -8.4 6.4 -0.8 2 -0.8 2 -1.6 -0.4 -0.5 -1.4 -0.7 -29.6 -0.4 -62.7 l0.5 -60.1 3 -4.4 c3.7 -5.2 9.3 -8.5 15.7 -9.4 4.5 -0.6 4.8 -0.8 5.3 -4.3 1.7 -10.3 3.6 -18.4 4.9 -20.9 4.6 -8.9 13.9 -11.7 30.1 -9.2 7.2 1 27.7 4.5 39.5 6.5 4.7 0.8 18.4 3.1 30.5 5 12.1 2 27 4.4 33 5.5 6.1 1.1 14.8 2.4 19.4 3 19.2 2.6 26.7 11.3 24.2 28 -0.6 4.1 -1.1 8 -1.1 8.7 0 0.6 2.4 1.9 5.4 2.8 10.7 3.4 16.1 8.7 17.5 17.3 0.7 4.5 0.1 6.8 -8.1 31.3 -4.9 14.5 -12.3 36.8 -16.4 49.4 -4.2 12.7 -8.6 25.9 -9.9 29.5 -1.3 3.6 -5.8 16.4 -10.1 28.5 -4.6 13.1 -8.7 23.4 -10.3 25.4 -4.4 5.7 -13.4 9.1 -19.6 7.4z m61.3 -170.6 c-1.1 -2.2 -7 -5.9 -7.9 -4.9 -0.3 0.4 -1.6 6.3 -2.8 13.2 -1.2 6.9 -3.7 21.2 -5.6 31.9 -1.9 10.7 -3.5 20.1 -3.4 21 0 0.9 4.7 -12.1 10.3 -28.9 7.6 -22.6 10.1 -31 9.4 -32.3z m-24.8 -11.8 c4.1 -23.8 4.2 -24.6 2.5 -27.2 -1.9 -2.9 -7.8 -5.1 -17 -6.2 l-5 -0.7 3 2 c4.4 2.9 8.2 7.2 9.9 11.4 1.3 3 1.6 8 1.6 24.9 0 11.7 0.2 21 0.3 20.8 0.2 -0.2 2.3 -11.5 4.7 -25z m-34 -36.4 c-4.1 -0.7 -20.5 -3.4 -36.5 -5.9 -15.9 -2.5 -31.5 -5 -34.5 -5.6 -6 -1.1 -28.3 -4.8 -34.1 -5.7 -6.7 -1 -10.3 2.8 -12.4 12.7 l-1.3 6 63.2 -0.1 c55.4 -0.1 62.2 -0.3 55.6 -1.4z"/>
  <path d="M224.3 290.5 c-7.6 -3.3 -13 -11.7 -14.7 -22.7 -0.5 -3.3 -0.3 -3.8 1.3 -3.8 1.5 0 2.1 1 2.6 5.2 0.4 2.8 1.4 5.8 2.1 6.6 0.8 0.7 1.4 2 1.4 2.8 0 0.8 0.5 1.4 1 1.4 0.6 0 1 1.4 1 3 0 2.6 0.4 3 2.7 3 4.4 0 9.3 2.2 9.3 4.2 0 2.1 -2.3 2.3 -6.7 0.3z"/>
  <path d="M239 290.2 c0 -2 4.9 -4.2 9.3 -4.2 3.9 0 3.3 1.5 -1.6 3.9 -5.3 2.6 -7.7 2.7 -7.7 0.3z"/>
  <path d="M80.2 289.8 c-0.7 -0.7 -1.2 -2.7 -1.2 -4.5 0 -2.6 0.4 -3.3 2 -3.3 1.5 0 2 0.7 2 2.5 0 2.2 0.4 2.5 3.5 2.5 l3.5 0 0 -5 c0 -3.6 0.4 -5 1.4 -5 2.8 0 3.8 12.3 1 13.4 -2.7 1 -11 0.6 -12.2 -0.6z"/>
  <path d="M103.4 290.1 c-0.2 -0.2 -0.4 -1 -0.4 -1.8 0 -1 3.2 -1.3 15.1 -1.3 13.8 0 15 0.1 14.7 1.8 -0.3 1.5 -1.8 1.7 -14.6 1.7 -7.9 0 -14.6 -0.2 -14.8 -0.4z"/>
  <path d="M139 290 c-2.1 -1.3 -0.6 -14 1.6 -14 1 0 1.4 1.4 1.4 5.5 l0 5.5 3.5 0 c3.5 0 3.5 0 3.5 -4.5 0 -3.6 0.3 -4.5 1.8 -4.5 1.3 0 1.8 1 2 3.9 0.1 2.1 -0.2 4.9 -0.6 6.2 -0.8 2.1 -1.5 2.4 -6.7 2.4 -3.1 0 -6.1 -0.2 -6.5 -0.5z"/>
  <path d="M188.9 290.2 c0 -0.4 -0.2 -1.7 -0.5 -2.9 -0.3 -1.7 0.1 -2.3 1.5 -2.3 1.8 0 3.1 1.8 3.1 4.4 0 1.2 -3.9 2 -4.1 0.8z"/>
  <path d="M197.6 290.2 c-1.5 -1.4 -0.4 -3.2 2 -3.2 1.8 0 2.5 0.5 2.2 1.7 -0.3 1.6 -3.1 2.6 -4.2 1.5z"/>
  <path d="M271 288.5 c-0.7 -1.8 -0.7 -6.3 -0.1 -12.2 0 -0.7 0.8 -1.3 1.6 -1.3 1.2 0 1.5 1.3 1.5 6 l0 6 5.5 0 c4.2 0 5.5 0.3 5.5 1.5 0 1.8 0.1 1.8 -7.3 2 -5.2 0.1 -6 -0.1 -6.7 -2z"/>
  <path d="M300.5 289.6 c-1.1 -0.8 -10.5 -21.7 -10.5 -23.3 0 -0.2 -0.9 -0.3 -2.1 -0.3 -1.2 0 -2.3 0.8 -2.6 2 -0.9 3.5 -3.3 2.4 -3.3 -1.5 0 -3.9 0.7 -4.1 8.3 -2.9 3.4 0.6 3.7 0.9 3.7 4 0 2.1 0.5 3.4 1.3 3.4 1.2 0 3.7 5.3 3.7 7.9 0 0.7 0.7 1.9 1.5 2.7 0.8 0.9 1.5 2.4 1.5 3.5 0 1.7 0.7 1.9 5.9 1.9 5.5 0 8.3 1.2 6.7 2.8 -1.1 1 -12.7 0.9 -14.1 -0.2z"/>
  <path d="M334.8 290.2 c-1 -0.2 -1.8 -1 -1.8 -1.8 0 -1.1 1.5 -1.4 6.6 -1.4 5.7 0 6.5 0.2 6.2 1.7 -0.2 1.3 -1.4 1.8 -4.8 1.8 -2.5 0 -5.3 -0.1 -6.2 -0.3z"/>
  <path d="M54.5 282.8 c-0.7 -1.8 -3.3 -9.7 -5.6 -17.5 -2.4 -7.8 -4.4 -14.1 -4.6 -14 -0.1 0.1 -0.3 2.5 -0.3 5.2 -0.3 7.4 -1 10.5 -2.6 10.5 -1 0 -1.4 -1.3 -1.4 -5 0 -2.7 0.4 -5 1 -5 0.5 0 0.7 -2.1 0.3 -5 l-0.6 -5 3.4 0 3.4 0 5.3 17.3 c2.9 9.4 5.2 18.2 5.2 19.5 0 3.2 -1.9 2.7 -3.5 -1z"/>
  <path d="M63 283 c0 -2.3 0.4 -3 2 -3 1.3 0 1.9 0.6 1.7 1.8 -0.7 4.7 -3.7 5.7 -3.7 1.2z"/>
  <path d="M162.1 276.3 c-1.6 -5.4 -3.7 -12.4 -4.5 -15.5 -0.8 -3.2 -1.9 -6.6 -2.5 -7.5 -0.9 -1.6 -1 -1.4 -1.1 1 0 1.5 -0.4 2.7 -0.9 2.7 -1.2 0 -2.1 -2.6 -2.1 -6.1 0 -2.6 0.3 -2.9 3.4 -2.9 3.7 0 4.6 1.2 4.6 6 0 1.6 0.4 3 0.8 3.2 1.2 0.4 5.2 13.9 5.2 17.2 0 1.4 0.5 2.6 1 2.6 0.6 0 1 1.1 1 2.5 0 1.4 0.5 2.5 1 2.5 0.6 0 1 0.9 1 2 0 1.3 -0.7 2 -1.9 2 -1.6 0 -2.5 -1.8 -5 -9.7z"/>
  <path d="M172 284.3 c0 -3.8 1.3 -6.3 3.1 -6.3 2.1 0 2.4 1.6 0.9 5.4 -1.1 2.9 -4 3.5 -4 0.9z"/>
  <path d="M252 282.8 c0 -3.4 0.3 -3.8 2.5 -3.8 3.1 0 3.2 1.1 0 4.7 l-2.4 2.8 -0.1 -3.7z"/>
  <path d="M307.2 281.5 c-2.2 -4.5 -3 -10.5 -1.4 -10.5 0.9 0 5.4 7.7 7.1 12.3 1 2.4 0.8 2.7 -1.2 2.7 -1.7 0 -2.8 -1.1 -4.5 -4.5z"/>
  <path d="M39 278.5 c0 -4.8 0.2 -5.5 2 -5.5 1.6 0 2 0.7 2 3.3 0 4.7 -1 7.7 -2.6 7.7 -1 0 -1.4 -1.5 -1.4 -5.5z"/>
  <path d="M28 279.8 c0 -4.8 1 -7.8 2.6 -7.8 1 0 1.4 1.5 1.4 5.5 0 4.8 -0.2 5.5 -2 5.5 -1.6 0 -2 -0.7 -2 -3.2z"/>
  <path d="M231 281 c0 -0.5 -1.1 -1 -2.5 -1 -1.5 0 -2.8 -0.7 -3.2 -1.7 -0.4 -1 -1 -2 -1.5 -2.4 -1 -0.6 -2.8 -10 -2.8 -14.5 0 -2.3 0.5 -3.4 1.4 -3.4 1.4 0 1.9 1.4 3.1 9.8 1.5 9.7 10.4 13.7 15.9 7.2 3.4 -4.1 4.6 -8.9 4.6 -18.2 0 -7.3 0.1 -7.8 2.2 -7.8 2 0 2.1 0.2 1.5 9.8 -0.7 10 -2.2 17.2 -3.6 17.2 -0.5 0 -1.1 0.9 -1.4 2 -0.3 1.4 -1.4 2 -3.1 2 -1.4 0 -2.6 0.5 -2.6 1 0 0.6 -1.8 1 -4 1 -2.2 0 -4 -0.4 -4 -1z"/>
  <path d="M128 278.9 c0 -1.5 0.5 -2 2.2 -1.7 3.4 0.5 3.7 3.8 0.4 3.8 -2 0 -2.6 -0.5 -2.6 -2.1z"/>
  <path d="M343 271.2 c0 -8.4 2.1 -18.2 4 -18.2 0.4 0 1 -1.8 1.4 -4 0.3 -2.2 1.1 -4 1.6 -4 0.6 0 1 -0.9 1 -1.9 0 -3.3 1.1 -5.1 3.1 -5.1 1 0 1.9 0.5 1.9 1.1 0 0.7 -2 6.3 -4.5 12.6 -3.5 8.8 -4.6 13 -4.9 18.6 -0.2 4 -0.5 7.8 -0.5 8.5 -0.1 0.6 -0.8 1.2 -1.6 1.2 -1.2 0 -1.5 -1.6 -1.5 -8.8z"/>
  <path d="M198 273 c0 -3.6 0.4 -5 1.4 -5 1.5 0 2.6 3 2.6 7.3 0 2 -0.5 2.7 -2 2.7 -1.7 0 -2 -0.7 -2 -5z"/>
  <path d="M78.6 274.8 c-0.3 -1.3 -0.6 -3.8 -0.6 -5.5 0 -2.6 0.4 -3.3 2 -3.3 1.8 0 2 0.7 2 5.5 0 4 -0.4 5.5 -1.4 5.5 -0.7 0 -1.6 -1 -2 -2.2z"/>
  <path d="M187.6 273.8 c-0.9 -6.3 -0.6 -7.8 1.5 -7.8 1.6 0 1.9 0.7 1.9 5.5 0 4.1 -0.4 5.5 -1.5 5.5 -0.8 0 -1.6 -1.3 -1.9 -3.2z"/>
  <path d="M176 272.3 c0 -1.5 1.5 -7.5 3.3 -13.3 l3.3 -10.5 3.7 -0.3 3.7 -0.3 0 4.9 c0 6 -2.4 7.9 -3.5 2.9 -0.6 -2.9 -1 -2.3 -4.4 7.7 -3.6 10.9 -6.1 14.6 -6.1 8.9z"/>
  <path d="M67 271.3 c0 -4.8 1.1 -7.3 3.1 -7.3 2.3 0 2.4 1.9 0.5 6.5 -1.8 4.2 -3.6 4.6 -3.6 0.8z"/>
  <path d="M257 272.3 c0 -1 0.3 -4.2 0.6 -7 0.6 -4.4 1 -5.3 2.6 -5.3 2 0 2 0.5 0.2 10.3 -0.7 3.7 -3.4 5.3 -3.4 2z"/>
  <path d="M89 268 c0 -3.6 0.4 -5 1.4 -5 1.5 0 2.6 3 2.6 7.3 0 2 -0.5 2.7 -2 2.7 -1.7 0 -2 -0.7 -2 -5z"/>
  <path d="M139 269.3 c0 -5.3 1 -8.3 2.6 -8.3 1 0 1.4 1.6 1.4 6 0 5.3 -0.2 6 -2 6 -1.6 0 -2 -0.7 -2 -3.7z"/>
  <path d="M331.6 268.8 c-1.2 -4.8 -0.7 -7.8 1.4 -7.8 1.7 0 2 0.7 2 5 0 3.6 -0.4 5 -1.4 5 -0.7 0 -1.6 -1 -2 -2.2z"/>
  <path d="M150 263.5 c0 -2.8 0.4 -3.5 2 -3.5 1.5 0 1.9 0.5 1.6 2.3 -0.3 1.2 -0.5 2.8 -0.5 3.5 -0.1 0.6 -0.8 1.2 -1.6 1.2 -1 0 -1.5 -1.1 -1.5 -3.5z"/>
  <path d="M300 263.5 c0 -2.4 0.5 -3.5 1.5 -3.5 0.8 0 1.5 -0.7 1.5 -1.5 0 -0.9 0.7 -1.8 1.5 -2.1 0.8 -0.4 1.5 -1.2 1.5 -2 0 -0.8 0.4 -1.4 0.9 -1.4 0.6 0 1.3 -2 1.7 -4.5 0.5 -3.5 1 -4.5 2.5 -4.5 1.4 0 1.9 0.7 1.9 2.8 0 3.7 -4.7 12.9 -7.2 14.3 -1.4 0.8 -1.9 1.8 -1.5 3.5 0.3 2 0 2.4 -1.9 2.4 -2.1 0 -2.4 -0.5 -2.4 -3.5z"/>
  <path d="M166.6 263.4 c-0.3 -0.9 -0.6 -2.9 -0.6 -4.5 0 -1.6 -0.4 -2.9 -1 -2.9 -0.5 0 -1 -1.5 -1 -3.4 0 -1.9 -0.5 -3.6 -1.1 -3.8 -0.6 -0.2 -1.3 -2.5 -1.6 -5.1 -0.3 -2.6 -1 -4.7 -1.4 -4.7 -0.5 0 -0.9 -1.6 -0.9 -3.5 0 -1.9 -0.4 -3.5 -0.9 -3.5 -0.4 0 -1.2 -1.5 -1.7 -3.2 -0.9 -3.1 -1.3 -3.3 -5.7 -3.6 -4.2 -0.3 -4.7 -0.1 -4.7 1.7 0 1.4 -0.6 2.1 -2 2.1 -1.5 0 -2 -0.7 -2 -2.8 0 -1.5 0.5 -3.3 1.2 -4 1.3 -1.3 12.6 -1.6 14.4 -0.4 0.7 0.4 3.3 8.1 5.9 17.2 7.3 25.5 6 25.1 12.4 3.4 3.1 -10.4 6 -19.5 6.4 -20.1 0.9 -1.5 14.3 -1.8 15.1 -0.5 0.3 0.5 0.8 2.8 1.2 5 0.6 3.8 0.5 4.2 -1.5 4.2 -1.7 0 -2.1 -0.6 -2.1 -3 0 -2.9 -0.1 -3 -4.9 -3 l-4.9 0 -2 6.8 c-1.2 3.7 -3.8 12.7 -5.9 19.9 l-3.8 13.3 -3.1 0 c-2 0 -3.4 -0.6 -3.8 -1.6z"/>
  <path d="M54.6 254.7 c-2.7 -9.8 -3.3 -14.7 -1.6 -14.7 1.3 0 2.3 2.3 5.3 12.5 l2.3 8 1.6 -5 c0.9 -2.7 2.8 -9 4.3 -14 1.5 -4.9 3.5 -11.5 4.4 -14.5 l1.8 -5.5 7.3 -0.3 c7.6 -0.3 9.2 0.3 9.7 3.8 0.2 1.4 -0.3 2 -1.7 2 -1.1 0 -2 -0.4 -2 -1 0 -0.6 -2.6 -1 -5.9 -1 l-5.8 0 -0.6 5.2 c-0.4 2.8 -1 5.4 -1.5 5.7 -0.5 0.3 -1.2 2.4 -1.5 4.6 -0.4 2.2 -2 8.4 -3.7 13.8 l-3.1 9.7 -3.3 0 -3.3 0 -2.7 -9.3z"/>
  <path d="M29 261.3 c0 -3.4 1.2 -6.3 2.6 -6.3 1 0 1.4 1.3 1.4 4 0 3.3 -0.3 4 -2 4 -1.2 0 -2 -0.7 -2 -1.7z"/>
  <path d="M71 258.5 c0 -1.4 0.5 -4.5 1.2 -7 1.1 -4.1 1.5 -4.5 4.4 -4.5 3.6 0 4.4 1.5 4.4 9.3 0 6 -2.6 6.7 -3.5 1 -0.4 -2.1 -0.8 -4.2 -0.9 -4.7 -0.1 -0.6 -0.8 1.1 -1.5 3.7 -1.4 5 -4.1 6.5 -4.1 2.2z"/>
  <path d="M197 256 c0 -3.6 0.4 -5 1.4 -5 1.5 0 2.6 3 2.6 7.3 0 2 -0.5 2.7 -2 2.7 -1.7 0 -2 -0.7 -2 -5z"/>
  <path d="M328.7 256.8 c-0.8 -1.8 -4.3 -10.2 -7.7 -18.7 -4.8 -12.1 -5.9 -15.6 -4.8 -16.3 0.7 -0.4 4.2 -0.7 7.7 -0.6 5.6 0.3 6.5 0.6 7.2 2.6 0.9 2.3 0.8 2.3 -4.7 1.6 l-5.5 -0.6 0.7 3.8 c0.4 2.1 1.3 4.4 2 5.2 0.7 0.7 1.6 2.9 2 5 0.4 2 1.3 4.3 2.1 5 0.7 0.7 1.3 2.4 1.3 3.7 0 1.3 0.5 2.5 1.1 2.7 1.4 0.5 2.5 9.8 1.1 9.8 -0.5 0 -1.6 -1.5 -2.5 -3.2z"/>
  <path d="M88 254.5 c0 -4.9 2.3 -6.4 3.4 -2.2 1.2 4.4 0.7 6.7 -1.4 6.7 -1.7 0 -2 -0.7 -2 -4.5z"/>
  <path d="M140.5 253.3 c0.2 -2.1 0.3 -4.4 0.4 -5 0.1 -0.7 0.8 -1.3 1.6 -1.3 1.1 0 1.5 1.2 1.5 5 0 4.3 -0.3 5 -1.9 5 -1.6 0 -1.9 -0.6 -1.6 -3.7z"/>
  <path d="M221.4 249.5 c0.7 -8 2.2 -13.5 3.7 -13.5 0.5 0 0.9 -0.7 0.9 -1.5 0 -0.8 0.7 -1.5 1.5 -1.5 0.8 0 1.5 -0.4 1.5 -1 0 -0.6 3 -1 7 -1 l7 0 0 3.1 c0 2.9 -0.1 3 -2.2 1.5 -7.3 -5.1 -15.1 2.5 -16.3 15.9 -0.1 1.6 -0.3 3.6 -0.4 4.3 0 0.6 -0.8 1.2 -1.7 1.2 -1.5 0 -1.6 -0.9 -1 -7.5z"/>
  <path d="M209 249.2 c0 -4.1 3.3 -14 6.1 -18.2 3.4 -5.2 6.3 -7.5 12 -9.5 5.8 -2.1 7.9 -1.9 7.9 0.5 0 1.6 -0.7 2 -3.1 2 -1.7 0 -3.7 0.7 -4.5 1.5 -0.9 0.8 -2.4 1.5 -3.4 1.5 -1 0 -2 0.9 -2.3 2 -0.3 1.2 -1.4 2 -2.6 2 -1.5 0 -2.1 0.6 -2.1 2.3 0 1.2 -0.9 4.6 -2 7.5 -1.1 2.9 -2 6.3 -2 7.7 0 1.8 -0.5 2.5 -2 2.5 -1.3 0 -2 -0.7 -2 -1.8z"/>
  <path d="M297.1 247.4 c1.9 -6.5 -0.6 -11.5 -6.3 -12.9 -3.8 -1 -3.6 -3.5 0.1 -3.5 4.7 0 8.1 1.7 8.1 4 0 1.1 0.5 2 1 2 0.6 0 1 3 1 7 0 6.7 -0.1 7 -2.4 7 -2.3 0 -2.4 -0.2 -1.5 -3.6z"/>
  <path d="M335 248.4 c-0.6 -1.4 -1 -3.9 -1 -5.5 0 -3.9 2.6 -3.8 3.5 0.1 0.4 1.6 1 3.2 1.4 3.5 0.5 0.2 2.5 -4.8 4.6 -11.3 2.1 -6.4 4.2 -12.3 4.8 -13 0.7 -0.9 3 -1.2 7.1 -1 4.9 0.2 6.1 0.7 6.4 2.1 0.3 1.4 -0.5 1.7 -5.2 1.7 -5.1 0 -5.6 0.2 -6.2 2.5 -0.3 1.4 -1 2.5 -1.5 2.5 -0.5 0 -0.9 1 -0.9 2.2 0 3 -3.2 12.8 -4.2 12.8 -0.4 0 -0.8 1.4 -0.8 3 0 2.8 -0.3 3 -3.5 3 -2.9 0 -3.7 -0.5 -4.5 -2.6z"/>
  <path d="M258 246.5 c0 -2.4 0.5 -3.5 1.5 -3.5 0.8 0 1.5 0.6 1.6 1.3 0 0.6 0.2 2.2 0.5 3.5 0.3 1.7 -0.1 2.2 -1.6 2.2 -1.6 0 -2 -0.7 -2 -3.5z"/>
  <path d="M245.6 245.8 c-1 -3.8 -0.7 -4.8 1.4 -4.8 1.6 0 2 0.7 2 3.5 0 4 -2.4 4.9 -3.4 1.3z"/>
  <path d="M30 244.8 c0 -3.9 1.2 -6.8 2.6 -6.8 1 0 1.4 1.3 1.4 4.5 0 3.8 -0.3 4.5 -2 4.5 -1.4 0 -2 -0.7 -2 -2.2z"/>
  <path d="M196 241.5 c0 -4 2.4 -4.9 3.4 -1.2 1 3.7 0.7 4.7 -1.4 4.7 -1.6 0 -2 -0.7 -2 -3.5z"/>
  <path d="M87 237.5 c0 -4 0.4 -5.5 1.4 -5.5 1.6 0 2.6 3 2.6 7.8 0 2.5 -0.4 3.2 -2 3.2 -1.8 0 -2 -0.7 -2 -5.5z"/>
  <path d="M141.2 239.8 c-0.2 -5 0.8 -8.8 2.4 -8.8 1 0 1.4 1.5 1.4 6 0 5.2 -0.3 6 -1.8 6 -1.4 0 -1.9 -0.8 -2 -3.2z"/>
  <path d="M308.6 239.3 c-0.4 -2.1 -0.9 -5.5 -1.2 -7.5 -0.5 -3.1 -1 -3.8 -2.9 -3.8 -1.2 0 -3.9 -0.7 -5.8 -1.5 -2.5 -1 -7.1 -1.5 -14.2 -1.5 l-10.5 0 0 5 c0 3.6 -0.4 5 -1.4 5 -2.6 0 -3.6 -9.3 -1.3 -12.4 1.2 -1.7 2.7 -1.8 14.3 -1.4 10.2 0.3 13.7 0.8 16.8 2.3 5.1 2.6 9.4 8.8 10.2 14.8 0.6 4.3 0.5 4.7 -1.4 4.7 -1.5 0 -2.1 -0.9 -2.6 -3.7z"/>
  <path d="M256 237 c0 -2 -0.5 -3 -1.5 -3 -0.8 0 -1.5 -0.9 -1.5 -2 0 -1.1 -0.7 -2 -1.5 -2 -0.8 0 -1.5 -0.7 -1.5 -1.5 0 -0.8 -0.9 -1.5 -2 -1.5 -1.1 0 -2 -0.4 -2 -0.9 0 -0.6 -2 -1.3 -4.5 -1.7 -3.6 -0.5 -4.5 -1 -4.5 -2.6 0 -1.8 0.4 -2 4.1 -1.4 7.5 1.2 13.3 5.6 17 12.8 2.4 4.8 2.4 6.8 -0.1 6.8 -1.6 0 -2 -0.7 -2 -3z"/>
  <path d="M115 235.5 l0 -3.5 5.9 0 c3.2 0 7.3 -0.3 9 -0.6 2.6 -0.6 3.1 -0.4 3.1 1.4 0 2.6 -1.8 3.2 -9.1 3.2 -4.6 0 -5.9 0.3 -5.9 1.5 0 0.8 -0.7 1.5 -1.5 1.5 -1 0 -1.5 -1.1 -1.5 -3.5z"/>
  <path d="M372 235.5 c0 -3.3 0.2 -3.5 3.5 -3.5 1.9 0 3.5 -0.4 3.5 -1 0 -0.5 1.6 -1 3.5 -1 3.3 0 3.5 0.2 3.5 3.5 0 3.2 -0.2 3.5 -3 3.5 -1.6 0 -3 0.5 -3 1 0 0.6 -1.8 1 -4 1 -3.9 0 -4 -0.1 -4 -3.5z"/>
  <path d="M330.6 235.8 c-0.3 -1.3 -0.6 -3.6 -0.6 -5.1 0 -4.2 2.2 -2.8 4.2 2.6 l1.8 4.7 -2.4 0 c-1.6 0 -2.6 -0.7 -3 -2.2z"/>
  <path d="M31 226.2 c0 -4.3 1.7 -5.2 9.5 -5.2 6.6 0 9.5 1 9.5 3.2 0 0.4 -3.4 0.8 -7.5 0.8 -6.8 0 -7.5 0.2 -7.5 2 0 1.3 -0.7 2 -2 2 -1.5 0 -2 -0.7 -2 -2.8z"/>
  <path d="M103 223.8 c0 -2.5 2.8 -2.9 17 -2.6 11.6 0.3 12.5 0.4 12.8 2.3 0.3 1.9 -0.3 2 -14.8 2 -13.6 0 -15 -0.2 -15 -1.7z"/>
  <path d="M393 221.5 c0 -1.8 0.6 -3.8 1.3 -4.2 0.7 -0.4 1.9 -2.3 2.6 -4 0.8 -1.8 2 -3.3 2.7 -3.3 0.9 0 1.4 -1.1 1.4 -3 0 -2.8 0.3 -3 3.5 -3 3.3 0 3.5 0.2 3.5 3.5 0 2.4 -0.5 3.5 -1.5 3.5 -0.9 0 -1.5 0.9 -1.5 2.5 0 2.7 -1.9 7.5 -3 7.5 -0.4 0 -1 0.9 -1.3 2 -0.4 1.5 -1.4 2 -4.1 2 -3.4 0 -3.6 -0.2 -3.6 -3.5z"/>
  <path d="M299.7 213.7 c-3.6 -0.9 -3.7 -1 -3.1 -4.3 0.4 -2.2 0.2 -3.4 -0.5 -3.4 -0.6 0 -1.1 -1.6 -1.1 -3.5 0 -3.3 0.2 -3.5 3.5 -3.5 3.1 0 3.5 0.3 3.5 2.5 0 1.4 0.4 2.5 0.8 2.5 1.1 0 4.2 6.6 4.2 9 0 2 -1.1 2.2 -7.3 0.7z"/>
  <path d="M404 200.4 c0 -1.4 0.5 -4.5 1.1 -7 1.1 -4.1 1.4 -4.4 4.5 -4.4 3 0 3.4 0.3 3.4 2.5 0 1.4 -0.5 4.5 -1.2 7 -1.1 4.2 -1.4 4.5 -4.5 4.5 -2.9 0 -3.3 -0.3 -3.3 -2.6z"/>
  <path d="M292 184.5 l0 -6.5 3.5 0 3.5 0 0 6.5 0 6.5 -3.5 0 -3.5 0 0 -6.5z"/>
  <path d="M293 173.5 c0 -1.9 0.5 -3.5 1 -3.5 0.6 0 1 -1.6 1 -3.5 0 -3.3 0.2 -3.5 3.5 -3.5 3.3 0 3.5 0.2 3.5 3.5 0 1.9 -0.4 3.5 -1 3.5 -0.5 0 -1 1.6 -1 3.5 0 3.3 -0.2 3.5 -3.5 3.5 -3.3 0 -3.5 -0.2 -3.5 -3.5z"/>
  <path d="M405.6 173.8 c-0.3 -1.3 -0.6 -3.5 -0.6 -5 0 -2.5 0.4 -2.8 3.4 -2.8 3.6 0 4.6 1.5 4.6 7.3 0 2.4 -0.4 2.7 -3.4 2.7 -2.6 0 -3.5 -0.5 -4 -2.2z"/>
  <path d="M399.7 162.3 c-0.4 -0.3 -0.7 -1.7 -0.7 -3 0 -1.8 -0.5 -2.3 -2.5 -2.3 -2.2 0 -2.5 -0.4 -2.5 -3.5 0 -3.3 0.2 -3.5 3.5 -3.5 3 0 3.5 0.3 3.5 2.4 0 1.9 0.6 2.5 2.8 2.8 2.3 0.3 2.7 0.8 3 4.1 0.3 3.6 0.2 3.7 -3.1 3.7 -1.8 0 -3.7 -0.3 -4 -0.7z"/>
  <path d="M299 158.5 c0 -3.3 0.2 -3.5 3.5 -3.5 3.3 0 3.5 0.2 3.5 3.5 0 3.3 -0.2 3.5 -3.5 3.5 -3.3 0 -3.5 -0.2 -3.5 -3.5z"/>
  <path d="M309 148.5 c0 -3.3 0.2 -3.5 3.5 -3.5 3.3 0 3.5 0.2 3.5 3.5 0 3.3 -0.2 3.5 -3.5 3.5 -3.3 0 -3.5 -0.2 -3.5 -3.5z"/>
  <path d="M383 147.5 c0 -3.3 0.2 -3.5 3.5 -3.5 3.3 0 3.5 0.2 3.5 3.5 0 3.3 -0.2 3.5 -3.5 3.5 -3.3 0 -3.5 -0.2 -3.5 -3.5z"/>
  <path d="M320 143.5 c0 -3.3 0.2 -3.5 3.5 -3.5 3.3 0 3.5 0.2 3.5 3.5 0 3.3 -0.2 3.5 -3.5 3.5 -3.3 0 -3.5 -0.2 -3.5 -3.5z"/>
  <path d="M341 143.5 c0 -2.3 0.5 -3.5 1.4 -3.5 0.9 0 1.2 -0.7 0.9 -2 -0.3 -1.1 -0.9 -2 -1.4 -2 -0.5 0 -0.9 -0.6 -0.9 -1.3 0 -0.7 -0.9 -1.8 -2 -2.5 -1.4 -0.8 -2 -2.3 -2 -4.9 l0 -3.6 2.1 1.9 c5.6 5 10.6 15.5 9.4 19.4 -0.5 1.5 -1.5 2 -4.1 2 -3.2 0 -3.4 -0.2 -3.4 -3.5z"/>
  <path d="M354.3 132 l-2 -7 2.2 0 c1.8 0 2.5 0.9 3.5 4.5 1.2 4.3 0.8 9.5 -0.8 9.5 -0.4 0 -1.7 -3.1 -2.9 -7z"/>
  <path d="M334 119.6 c0 -2.5 0.7 -3.9 2.2 -5 2.4 -1.7 10.8 -2.2 10.8 -0.7 0 0.5 1 1.1 2.3 1.3 1.8 0.2 2.3 1 2.5 4.3 l0.3 4 -3.3 -3.1 c-1.8 -1.7 -4.1 -3.4 -5 -3.7 -2 -0.7 -6.8 2.8 -6.8 4.9 0 0.8 -0.7 1.4 -1.5 1.4 -1 0 -1.5 -1 -1.5 -3.4z"/>
 </g>
 <g fill="#ef4538">
  <path d="M369 231.9 c3.4 -8.6 3.5 -10 1.4 -14 -2.1 -4.1 -6.8 -5.9 -15.6 -5.9 -7.5 0 -12.5 1.7 -14.1 4.7 -0.8 1.3 -1.2 1.2 -3 -0.5 -3.9 -3.5 -6.4 -4.2 -14.4 -4.2 -5.9 0 -8.9 0.5 -11.7 2 -3.2 1.6 -4.3 1.7 -6 0.7 -1.1 -0.6 -2.5 -1 -2.9 -0.9 -6.1 1.7 -11.9 -20.6 -9.8 -37.4 1.4 -11.2 4.3 -18.4 10.1 -24.7 8.7 -9.5 18.8 -13.2 34.3 -12.6 10 0.5 11.2 1.3 12.2 7.9 l0.7 4.5 -6.7 -0.3 c-8.4 -0.5 -8.4 1 0 5.3 7.6 3.8 14 3.9 21 0.5 7.1 -3.6 7 -5 -0.4 -5 -3.4 0 -6.1 -0.4 -6.1 -1 0 -0.5 -0.1 -1.3 -0.2 -1.7 -0.2 -0.4 2.1 -0.6 5 -0.4 5.8 0.3 11.3 -1.2 15.4 -4.2 3.2 -2.4 7.4 -2 15.2 1.6 6.9 3.2 13.1 9.4 16.5 16.6 2.3 4.9 2.6 7 2.9 18.1 0.3 11.6 0.1 13.1 -2.7 21.7 -3.6 11 -7.7 18.6 -13.8 25.3 -6.3 7 -12.7 10.1 -22.4 10.7 l-7.8 0.6 2.9 -7.4z"/>
 </g>
 <g fill="#009dec">
  <path d="M69 409 c0 -1.6 0.7 -2 3.5 -2 4 0 4.9 2.4 1.3 3.4 -3.8 1 -4.8 0.7 -4.8 -1.4z"/>
  <path d="M193 405.5 c0 -4.2 2.4 -4.9 3.4 -1 0.8 3 0.1 4.5 -2 4.5 -0.9 0 -1.4 -1.1 -1.4 -3.5z"/>
  <path d="M206 407 c0 -1.3 0.7 -2 2 -2 1.3 0 2 0.7 2 2 0 1.3 -0.7 2 -2 2 -1.3 0 -2 -0.7 -2 -2z"/>
  <path d="M83 405.6 c0 -2.3 0.4 -2.6 3.5 -2.6 5.3 0 4.6 1.3 -2.7 4.8 -0.5 0.2 -0.8 -0.8 -0.8 -2.2z"/>
  <path d="M365 401.5 c0 -4.2 0.3 -5.5 1.5 -5.5 1.5 0 1.7 0.7 1.7 5.5 0 4.8 -0.2 5.5 -1.7 5.5 -1.2 0 -1.5 -1.3 -1.5 -5.5z"/>
  <path d="M171.1 398.6 c-1.5 -6 -1.4 -6.6 0.8 -6.6 1.9 0 3.1 3.4 3.1 8.6 0 4.1 -2.7 2.7 -3.9 -2z"/>
  <path d="M255.8 402.3 c-1 -0.2 -1.8 -1.1 -1.8 -1.9 0 -1 1.4 -1.4 5.5 -1.4 4 0 5.5 0.4 5.5 1.4 0 2.1 -4.8 3.1 -9.2 1.9z"/>
  <path d="M206 398.8 c0 -3 1.3 -5.8 2.6 -5.8 0.9 0 1.4 1.2 1.4 3.5 0 2.8 -0.4 3.5 -2 3.5 -1.1 0 -2 -0.6 -2 -1.2z"/>
  <path d="M98 389.6 c0 -3.2 0.3 -3.6 2.5 -3.6 2.4 0 2.5 0.1 1.2 3.2 -1.9 4.6 -3.7 4.8 -3.7 0.4z"/>
  <path d="M189 389.5 c0 -4 2.4 -4.9 3.4 -1.2 1 3.7 0.7 4.7 -1.4 4.7 -1.6 0 -2 -0.7 -2 -3.5z"/>
  <path d="M308 388 c0 -3.6 0.4 -5 1.4 -5 1.5 0 2.6 3 2.6 7.3 0 2 -0.5 2.7 -2 2.7 -1.7 0 -2 -0.7 -2 -5z"/>
  <path d="M288.6 388.8 c-1 -3.8 -0.7 -4.8 1.4 -4.8 1.6 0 2 0.7 2 3.5 0 4 -2.4 4.9 -3.4 1.3z"/>
  <path d="M53 385.3 l0 -3.7 3.5 3.4 c1.9 1.9 3.5 3.5 3.5 3.7 0 0.2 -1.6 0.3 -3.5 0.3 -3.4 0 -3.5 -0.1 -3.5 -3.7z"/>
  <path d="M28 386.1 c-1.6 -3.1 -1.2 -5.1 1 -5.1 1.6 0 2 0.7 2 3.5 0 3.9 -1.4 4.6 -3 1.6z"/>
  <path d="M207 384.3 c0 -3.4 1.2 -6.3 2.6 -6.3 1 0 1.4 1.3 1.4 4 0 3.3 -0.3 4 -2 4 -1.2 0 -2 -0.7 -2 -1.7z"/>
  <path d="M101 377.5 c0 -2.8 0.4 -3.5 2 -3.5 2.1 0 2.4 1 1.4 4.8 -1 3.6 -3.4 2.7 -3.4 -1.3z"/>
  <path d="M307 374.5 c0 -4 2.4 -4.9 3.4 -1.2 1 3.7 0.7 4.7 -1.4 4.7 -1.6 0 -2 -0.7 -2 -3.5z"/>
  <path d="M81 375.8 c0 -3 1.3 -5.8 2.6 -5.8 0.9 0 1.4 1.2 1.4 3.5 0 2.8 -0.4 3.5 -2 3.5 -1.1 0 -2 -0.6 -2 -1.2z"/>
  <path d="M184.6 373.9 c-1 -5.1 -0.7 -7.9 0.8 -7.9 0.8 0 1.8 1.9 2.5 4.4 1.5 6 1.4 6.6 -0.8 6.6 -1.3 0 -2 -1 -2.5 -3.1z"/>
  <path d="M161 371.5 c0 -0.8 0.7 -1.5 1.5 -1.5 0.8 0 1.5 -0.9 1.5 -2 0 -1.3 0.7 -2 2 -2 1.6 0 2 0.7 2 3.5 0 3.3 -0.2 3.5 -3.5 3.5 -2.4 0 -3.5 -0.5 -3.5 -1.5z"/>
  <path d="M287.6 370.8 c-1 -3.8 -0.7 -4.8 1.4 -4.8 1.6 0 2 0.7 2 3.5 0 4 -2.4 4.9 -3.4 1.3z"/>
  <path d="M122 371 c0 -3.6 3.4 -14 4.6 -14 1.7 0 1.8 3.2 0.2 9.9 -0.9 3.8 -1.6 5.1 -3 5.1 -1 0 -1.8 -0.5 -1.8 -1z"/>
  <path d="M142 366.5 c0 -2.8 0.4 -3.5 2 -3.5 2.1 0 2.4 1 1.4 4.8 -1 3.6 -3.4 2.7 -3.4 -1.3z"/>
  <path d="M228 364.5 c0 -2.8 0.4 -3.5 2 -3.5 2.1 0 2.4 1 1.4 4.8 -1 3.6 -3.4 2.7 -3.4 -1.3z"/>
  <path d="M23.6 363.8 c-1 -3.8 -0.7 -4.8 1.4 -4.8 1.6 0 2 0.7 2 3.5 0 4 -2.4 4.9 -3.4 1.3z"/>
  <path d="M257 364 c0 -1.1 -0.6 -2 -1.4 -2 -1.5 0 -2.6 -3 -2.6 -7.2 0 -5.1 2.7 -3.1 4.5 3.5 1.8 6 1.9 6.1 2.9 3.5 1.4 -4 3.6 -3.6 3.6 0.7 0 3.3 -0.2 3.5 -3.5 3.5 -2.8 0 -3.5 -0.4 -3.5 -2z"/>
  <path d="M360 362.6 c0 -2 0.5 -2.6 2.1 -2.6 1.5 0 2 0.5 1.7 2.2 -0.5 3.4 -3.8 3.7 -3.8 0.4z"/>
  <path d="M209 359.8 c0 -3 1.3 -5.8 2.6 -5.8 0.9 0 1.4 1.2 1.4 3.5 0 2.8 -0.4 3.5 -2 3.5 -1.1 0 -2 -0.6 -2 -1.2z"/>
  <path d="M161.6 356.8 c-1 -3.8 -0.7 -4.8 1.4 -4.8 1.6 0 2 0.7 2 3.5 0 4 -2.4 4.9 -3.4 1.3z"/>
  <path d="M179.6 353.9 c-1 -5.1 -0.7 -7.9 0.8 -7.9 0.8 0 1.8 1.9 2.5 4.4 1.5 6 1.4 6.6 -0.8 6.6 -1.3 0 -2 -1 -2.5 -3.1z"/>
  <path d="M23 353.8 c0 -3 1.3 -5.8 2.6 -5.8 0.9 0 1.4 1.2 1.4 3.5 0 2.8 -0.4 3.5 -2 3.5 -1.1 0 -2 -0.6 -2 -1.2z"/>
  <path d="M146 348.5 c0 -2.8 0.4 -3.5 2 -3.5 2.1 0 2.4 1 1.4 4.8 -1 3.6 -3.4 2.7 -3.4 -1.3z"/>
  <path d="M360 348.4 c0 -3.3 3.3 -3 3.8 0.4 0.3 1.7 -0.2 2.2 -1.7 2.2 -1.6 0 -2.1 -0.6 -2.1 -2.6z"/>
  <path d="M305 344.5 c0 -4.9 2.3 -6.4 3.4 -2.2 1.2 4.4 0.7 6.7 -1.4 6.7 -1.7 0 -2 -0.7 -2 -4.5z"/>
  <path d="M210 346.8 c0 -3 1.3 -5.8 2.6 -5.8 0.9 0 1.4 1.2 1.4 3.5 0 2.8 -0.4 3.5 -2 3.5 -1.1 0 -2 -0.6 -2 -1.2z"/>
  <path d="M158.6 343.8 c-1 -3.8 -0.7 -4.8 1.4 -4.8 1.6 0 2 0.7 2 3.5 0 4 -2.4 4.9 -3.4 1.3z"/>
  <path d="M130 339.8 c0 -3 1.3 -5.8 2.6 -5.8 0.9 0 1.4 1.2 1.4 3.5 0 2.8 -0.4 3.5 -2 3.5 -1.1 0 -2 -0.6 -2 -1.2z"/>
  <path d="M176 337.5 c0 -4 2.4 -4.9 3.4 -1.2 1 3.7 0.7 4.7 -1.4 4.7 -1.6 0 -2 -0.7 -2 -3.5z"/>
  <path d="M149 335.5 c0 -2.4 0.5 -3.5 1.5 -3.5 1 0 1.5 -1 1.5 -3 0 -2.7 0.3 -3 3.4 -3 3 0 3.4 0.4 4 3.1 1.8 9 -1.3 11.3 -3.5 2.7 l-1.3 -5.3 -1.4 6.3 c-1.6 7 -4.2 8.7 -4.2 2.7z"/>
  <path d="M82.2 336.8 c-2 -2 -1.4 -2.8 2.3 -2.8 2.4 0 3.5 0.5 3.5 1.5 0 0.8 -0.4 1.5 -0.9 1.5 -0.5 0 -1.5 0.2 -2.3 0.5 -0.7 0.3 -1.9 0 -2.6 -0.7z"/>
  <path d="M94 334 c0 -1.6 0.7 -2 3.5 -2 4 0 4.9 2.4 1.3 3.4 -3.8 1 -4.8 0.7 -4.8 -1.4z"/>
  <path d="M26 333.8 c0 -3 1.3 -5.8 2.6 -5.8 0.9 0 1.4 1.2 1.4 3.5 0 2.8 -0.4 3.5 -2 3.5 -1.1 0 -2 -0.6 -2 -1.2z"/>
  <path d="M211 331.8 c0 -3.9 1.2 -6.8 2.6 -6.8 1 0 1.4 1.3 1.4 4.5 0 3.8 -0.3 4.5 -2 4.5 -1.4 0 -2 -0.7 -2 -2.2z"/>
  <path d="M212 317.8 c0 -3 1.3 -5.8 2.6 -5.8 0.9 0 1.4 1.2 1.4 3.5 0 2.8 -0.4 3.5 -2 3.5 -1.1 0 -2 -0.6 -2 -1.2z"/>
  <path d="M136 316.8 c0 -3 1.3 -5.8 2.6 -5.8 0.9 0 1.4 1.2 1.4 3.5 0 2.8 -0.4 3.5 -2 3.5 -1.1 0 -2 -0.6 -2 -1.2z"/>
  <path d="M37.1 311.1 c0.7 -1 2 -2.3 3 -3 1.7 -1 1.9 -0.8 1.9 1.9 0 2.7 -0.3 3 -3 3 -2.7 0 -2.9 -0.2 -1.9 -1.9z"/>
  <path d="M139 305.2 c0 -1.4 2.3 -3.2 4.2 -3.2 1.1 0 1.8 0.7 1.8 2 0 1.6 -0.7 2 -3 2 -1.6 0 -3 -0.4 -3 -0.8z"/>
  <path d="M165 304 c0 -2.3 2.9 -2.7 4.8 -0.8 1.9 1.9 1.4 2.8 -1.8 2.8 -2.3 0 -3 -0.4 -3 -2z"/>
  <path d="M237 304 c0 -2.4 3.5 -2.8 4.4 -0.4 0.9 2.3 0.8 2.4 -1.9 2.4 -1.8 0 -2.5 -0.5 -2.5 -2z"/>
  <path d="M52 302.6 c0 -1.3 2.8 -2.6 5.8 -2.6 0.6 0 1.2 0.9 1.2 2 0 1.6 -0.7 2 -3.5 2 -2.3 0 -3.5 -0.5 -3.5 -1.4z"/>
  <path d="M76 302 c0 -2.1 1 -2.4 4.8 -1.4 3.6 1 2.7 3.4 -1.3 3.4 -2.8 0 -3.5 -0.4 -3.5 -2z"/>
  <path d="M82.8 290.4 c-1 -0.3 -1.8 -1.2 -1.8 -2 0 -1 1.3 -1.4 4.5 -1.4 3.3 0 4.5 -0.4 4.5 -1.5 0 -0.8 0.6 -1.5 1.4 -1.5 1.6 0 2.9 4.1 1.7 5.3 -1.1 1.1 -8 1.8 -10.3 1.1z"/>
  <path d="M188.9 288.2 c-1.4 -3.6 -1.1 -5.2 1.1 -5.2 1.3 0 2 0.7 2 2 0 1.7 0.7 2 5 2 3.8 0 5 0.4 5 1.5 0 1.6 0 1.6 -7.4 1.9 -4.2 0.1 -4.9 -0.1 -5.7 -2.2z"/>
  <path d="M103 288 c0 -1.3 0.7 -2 2 -2 1.3 0 2 0.7 2 2 0 1.3 -0.7 2 -2 2 -1.3 0 -2 -0.7 -2 -2z"/>
  <path d="M408.5 284.9 c-4.4 -1.7 -8.4 -3.4 -8.9 -3.9 -0.5 -0.5 2.8 -0.7 8 -0.4 4.9 0.3 11.6 0.1 14.9 -0.4 3.3 -0.5 6.1 -0.9 6.3 -0.7 0.9 0.8 -2.3 4.8 -5.1 6.5 -4.2 2.6 -5.7 2.5 -15.2 -1.1z"/>
  <path d="M216 284 l-2.1 -3 3 0 c2.8 0 3.1 0.3 3.1 3 0 1.7 -0.4 3 -0.9 3 -0.5 0 -1.9 -1.3 -3.1 -3z"/>
  <path d="M165.3 284.8 c-1 -1.4 -3.3 -8.8 -3.3 -10.7 0 -0.6 0.9 -1.1 2 -1.1 1.6 0 2 0.7 2 3.5 0 1.9 0.5 3.5 1 3.5 0.6 0 1 1.4 1 3 0 3.1 -1.1 3.9 -2.7 1.8z"/>
  <path d="M171 284 c0 -1.5 0.7 -2 2.6 -2 2 0 2.5 0.4 2 1.6 -0.3 0.9 -0.6 1.8 -0.6 2 0 0.2 -0.9 0.4 -2 0.4 -1.3 0 -2 -0.7 -2 -2z"/>
  <path d="M253 280.5 c0 -3.1 0.3 -3.5 2.5 -3.5 3 0 3 0.3 0.8 4.1 -2.3 3.8 -3.3 3.7 -3.3 -0.6z"/>
  <path d="M228.8 281.3 c-1 -0.2 -1.8 -1.1 -1.8 -1.9 0 -0.8 -0.7 -1.4 -1.5 -1.4 -1 0 -1.5 -1.1 -1.5 -3.5 0 -4.2 1.1 -4.5 3.1 -0.8 1.4 2.7 7.3 5.8 8.9 4.8 0.6 -0.4 1 0.3 1 1.4 0 1.7 -0.6 2.1 -3.2 2 -1.8 -0.1 -4.1 -0.3 -5 -0.6z"/>
  <path d="M127 279 c0 -2 1.5 -2.5 4.4 -1.4 2.8 1.1 1.8 3.4 -1.4 3.4 -2.3 0 -3 -0.4 -3 -2z"/>
  <path d="M198 275.5 c0 -4 2.4 -4.9 3.4 -1.2 1 3.7 0.7 4.7 -1.4 4.7 -1.6 0 -2 -0.7 -2 -3.5z"/>
  <path d="M241.5 275.4 c1.4 -1.5 2.5 -3.1 2.5 -3.5 0 -0.5 0.5 -0.9 1 -0.9 0.6 0 1 1.6 1 3.5 0 3.3 -0.2 3.5 -3.5 3.5 l-3.4 0 2.4 -2.6z"/>
  <path d="M89 270.5 c0 -4 2.4 -4.9 3.4 -1.2 1 3.7 0.7 4.7 -1.4 4.7 -1.6 0 -2 -0.7 -2 -3.5z"/>
  <path d="M50.6 270.8 c-1 -3.8 -0.7 -4.8 1.4 -4.8 1.6 0 2 0.7 2 3.5 0 4 -2.4 4.9 -3.4 1.3z"/>
  <path d="M187.6 268.8 c-1.1 -4.2 -0.7 -5.8 1.4 -5.8 1.7 0 2 0.7 2 4 0 4.5 -2.3 5.7 -3.4 1.8z"/>
  <path d="M355.6 270.2 c-1.2 -1.1 -0.4 -3.8 5.5 -18.7 l6 -15.3 5.7 -0.4 c15.3 -1.1 28.1 -15 35.2 -38.2 1.5 -4.9 2.9 -7.6 3.8 -7.6 1.1 0 1.3 1 0.9 4.7 -0.3 2.6 -1 4.9 -1.6 5.1 -0.6 0.2 -1.1 1.4 -1.1 2.6 0 3.1 -3 11.6 -4.1 11.6 -0.5 0 -0.9 0.9 -0.9 2 0 1.1 -0.7 2 -1.5 2 -0.9 0 -1.5 0.9 -1.5 2.5 0 1.6 -0.6 2.5 -1.5 2.5 -0.8 0 -1.5 0.8 -1.5 1.8 0 2 -5.9 8.2 -7.8 8.2 -0.7 0 -1.2 0.4 -1.2 1 0 0.5 -1.2 1.3 -2.7 1.6 -1.6 0.4 -3.1 1.1 -3.4 1.6 -0.3 0.5 -3.6 1.4 -7.2 2 l-6.6 1.1 -2.3 5.8 c-1.3 3.3 -2.6 5.9 -3 5.9 -0.5 0 -0.8 0.9 -0.8 1.9 0 1.1 -0.9 4 -2 6.6 -1.1 2.6 -2 5.7 -2 7 0 2.1 -3.1 4.1 -4.4 2.7z"/>
  <path d="M410.8 270.3 c-3.6 -0.9 -2 -3.3 2.2 -3.3 2.2 0 5.9 -0.5 8.3 -1.2 6.7 -1.8 6.7 -1.4 6.7 -58.8 0 -49.5 0 -50 2 -50 2 0 2 0.4 1.8 52.9 l-0.3 53 -2.9 3 c-4.1 4.3 -11.5 6.1 -17.8 4.4z"/>
  <path d="M68 266.5 c0 -3 0.3 -3.5 2.4 -3.5 2.3 0 2.4 0.2 1.3 3.5 -0.6 1.9 -1.6 3.5 -2.4 3.5 -0.8 0 -1.3 -1.3 -1.3 -3.5z"/>
  <path d="M178 264.5 c0 -2.8 0.4 -3.5 2 -3.5 2.1 0 2.4 1 1.4 4.8 -1 3.6 -3.4 2.7 -3.4 -1.3z"/>
  <path d="M221 264.5 c0 -4 2.4 -4.9 3.4 -1.2 1 3.7 0.7 4.7 -1.4 4.7 -1.6 0 -2 -0.7 -2 -3.5z"/>
  <path d="M331.3 263.5 c-1.1 -3.3 -1 -3.5 1.3 -3.5 2.1 0 2.4 0.5 2.4 3.5 0 2.2 -0.5 3.5 -1.3 3.5 -0.8 0 -1.8 -1.6 -2.4 -3.5z"/>
  <path d="M343 263.5 c0 -3 0.3 -3.5 2.4 -3.5 2.3 0 2.4 0.2 1.3 3.5 -0.6 1.9 -1.6 3.5 -2.4 3.5 -0.8 0 -1.3 -1.3 -1.3 -3.5z"/>
  <path d="M246 262.8 c0 -3 1.3 -5.8 2.6 -5.8 0.9 0 1.4 1.2 1.4 3.5 0 2.8 -0.4 3.5 -2 3.5 -1.1 0 -2 -0.6 -2 -1.2z"/>
  <path d="M58.1 259.3 l0.1 -3.8 1.3 3 1.3 3 0.7 -2.7 c1 -4.1 3.5 -3.6 3.5 0.7 0 3.3 -0.2 3.5 -3.5 3.5 -3.4 0 -3.5 -0.1 -3.4 -3.7z"/>
  <path d="M168.1 259.3 c0 -2.5 0.1 -2.6 0.9 -0.8 1.2 2.7 1.2 3.5 0 3.5 -0.5 0 -1 -1.2 -0.9 -2.7z"/>
  <path d="M171 260.8 c0 -3 1.3 -5.8 2.6 -5.8 0.9 0 1.4 1.2 1.4 3.5 0 2.8 -0.4 3.5 -2 3.5 -1.1 0 -2 -0.6 -2 -1.2z"/>
  <path d="M74 252.3 c0 -4.2 0 -4.3 3.5 -4.3 3.4 0 3.5 0.1 3.5 4 0 5 -2.3 5.4 -3.8 0.8 -0.7 -2.3 -1 -2.7 -1.1 -1.3 -0.1 1.1 -0.6 2.7 -1.1 3.5 -0.7 1.1 -1 0.4 -1 -2.7z"/>
  <path d="M54 251.5 c0 -1.9 -0.4 -3.5 -1 -3.5 -0.5 0 -1 -1.6 -1 -3.5 0 -5.7 2.5 -4.3 4.3 2.5 2.1 7.6 2.1 8 -0.3 8 -1.6 0 -2 -0.7 -2 -3.5z"/>
  <path d="M246.6 252.8 c-1 -3.8 -0.7 -4.8 1.4 -4.8 1.6 0 2 0.7 2 3.5 0 4 -2.4 4.9 -3.4 1.3z"/>
  <path d="M65 248.8 c0 -3 1.3 -5.8 2.6 -5.8 0.9 0 1.4 1.2 1.4 3.5 0 2.8 -0.4 3.5 -2 3.5 -1.1 0 -2 -0.6 -2 -1.2z"/>
  <path d="M30 246.8 c0 -3 1.3 -5.8 2.6 -5.8 0.9 0 1.4 1.2 1.4 3.5 0 2.8 -0.4 3.5 -2 3.5 -1.1 0 -2 -0.6 -2 -1.2z"/>
  <path d="M324.6 246.1 c-0.3 -0.4 -1 -2 -1.5 -3.5 -1 -2.4 -0.8 -2.6 1.4 -2.6 2.2 0 2.5 0.4 2.5 3.5 0 3.3 -1.2 4.6 -2.4 2.6z"/>
  <path d="M196 242.5 c0 -4 2.4 -4.9 3.4 -1.2 1 3.7 0.7 4.7 -1.4 4.7 -1.6 0 -2 -0.7 -2 -3.5z"/>
  <path d="M341.3 242.5 c0.6 -1.9 1.6 -3.5 2.4 -3.5 0.8 0 1.3 1.3 1.3 3.5 0 3 -0.3 3.5 -2.4 3.5 -2.3 0 -2.4 -0.2 -1.3 -3.5z"/>
  <path d="M176 243.8 c0 -3 1.3 -5.8 2.6 -5.8 0.9 0 1.4 1.2 1.4 3.5 0 2.8 -0.4 3.5 -2 3.5 -1.1 0 -2 -0.6 -2 -1.2z"/>
  <path d="M87 240.5 c0 -4 2.4 -4.9 3.4 -1.2 1 3.7 0.7 4.7 -1.4 4.7 -1.6 0 -2 -0.7 -2 -3.5z"/>
  <path d="M243.4 239.5 l-2.1 -4.5 2.7 0 c3 0 4 1.5 4 6.1 0 4.3 -2.2 3.5 -4.6 -1.6z"/>
  <path d="M332.6 241.8 c-0.9 -3.6 -0.7 -7.8 0.5 -7.8 1.1 0 3.9 6 3.9 8.5 0 2.4 -3.7 1.8 -4.4 -0.7z"/>
  <path d="M160 239.5 c0 -4 2.4 -4.9 3.4 -1.2 1 3.7 0.7 4.7 -1.4 4.7 -1.6 0 -2 -0.7 -2 -3.5z"/>
  <path d="M227 235.6 c0 -3.5 0.1 -3.6 3.5 -3.6 1.9 0 3.5 0.5 3.5 1 0 0.6 -0.4 1 -0.9 1 -0.4 0 -2 1.2 -3.5 2.6 l-2.6 2.7 0 -3.7z"/>
  <path d="M255 234.4 c0 -4.4 1.8 -4.2 3.7 0.4 1.3 3.1 1.2 3.2 -1.2 3.2 -2.2 0 -2.5 -0.4 -2.5 -3.6z"/>
  <path d="M308 234.5 c0 -3.9 1.4 -4.6 3 -1.6 1.6 3.1 1.2 5.1 -1 5.1 -1.6 0 -2 -0.7 -2 -3.5z"/>
  <path d="M320.6 236.1 c-0.3 -0.4 -1 -2 -1.5 -3.5 -1 -2.4 -0.8 -2.6 1.4 -2.6 2.2 0 2.5 0.4 2.5 3.5 0 3.3 -1.2 4.6 -2.4 2.6z"/>
  <path d="M292.3 234.8 c-4.5 -1.5 -4.3 -3.8 0.2 -3.8 3.1 0 3.5 0.3 3.5 2.5 0 1.4 -0.1 2.5 -0.2 2.4 -0.2 -0.1 -1.8 -0.6 -3.5 -1.1z"/>
  <path d="M444.1 233.2 c-0.1 -1.2 1.9 -12.9 4.3 -26 2.5 -13 6.1 -32.9 8.1 -44.2 6.1 -34.4 8.5 -47.3 8.9 -47.7 0.2 -0.3 2.7 0.6 5.5 1.8 5.9 2.5 9.1 6 9.1 9.9 0 1.5 -7.9 26 -17.5 54.6 -19.9 59.1 -18.3 54.6 -18.4 51.6z"/>
  <path d="M214 233.1 c0 -0.6 1.1 -2.3 2.5 -3.8 l2.4 -2.8 0.1 3.8 c0 3.3 -0.3 3.7 -2.5 3.7 -1.4 0 -2.5 -0.4 -2.5 -0.9z"/>
  <path d="M195 228.5 c0 -4 2.4 -4.9 3.4 -1.2 1 3.7 0.7 4.7 -1.4 4.7 -1.6 0 -2 -0.7 -2 -3.5z"/>
  <path d="M346.3 227.5 c0.6 -1.9 1.6 -3.5 2.4 -3.5 0.8 0 1.3 1.3 1.3 3.5 0 3 -0.3 3.5 -2.4 3.5 -2.3 0 -2.4 -0.2 -1.3 -3.5z"/>
  <path d="M31 228.8 c0 -3 1.3 -5.8 2.6 -5.8 0.9 0 1.4 1.2 1.4 3.5 0 2.8 -0.4 3.5 -2 3.5 -1.1 0 -2 -0.6 -2 -1.2z"/>
  <path d="M71 227.8 c0 -3 1.3 -5.8 2.6 -5.8 0.9 0 1.4 1.2 1.4 3.5 0 2.8 -0.4 3.5 -2 3.5 -1.1 0 -2 -0.6 -2 -1.2z"/>
  <path d="M302 226.5 c0 -2.9 0.7 -3.1 3.8 -0.9 3 2.1 2.8 3.4 -0.8 3.4 -2.5 0 -3 -0.4 -3 -2.5z"/>
  <path d="M328 225.5 c0 -3.9 1.4 -4.6 3 -1.6 1.6 3.1 1.2 5.1 -1 5.1 -1.6 0 -2 -0.7 -2 -3.5z"/>
  <path d="M244 223.4 c0 -1.4 0.3 -2.4 0.8 -2.2 7.3 3.5 8 4.8 2.7 4.8 -3.1 0 -3.5 -0.3 -3.5 -2.6z"/>
  <path d="M224 224 c0 -1.4 2.9 -2.7 7.8 -3.5 3.7 -0.6 4.2 -0.5 4.2 1.3 0 1.5 -0.9 2.1 -3.7 2.6 -5.5 0.9 -8.3 0.7 -8.3 -0.4z"/>
  <path d="M286 213 l-15.5 -0.5 0 -56.7 0 -56.8 3.1 -3.1 c2.1 -2.1 4.4 -3.2 7.2 -3.6 3.8 -0.5 4.2 -0.4 4.2 1.6 0 1.4 -0.6 2.1 -1.8 2.1 -3.1 0 -6.8 2.3 -8 4.9 -0.9 1.8 -1.2 16.7 -1.2 55.3 l0 52.8 11.1 0 c10.2 0 11.1 -0.1 10.4 -1.7 -1.1 -2.8 -3.5 -16.2 -3.5 -19.4 0 -1.9 0.5 -2.9 1.5 -2.9 0.8 0 1.5 0.2 1.5 0.4 0 3.2 3.7 18.1 5.6 22.3 2.7 6.1 2.7 6.4 1.7 6.1 -0.5 -0.1 -7.8 -0.5 -16.3 -0.8z"/>
  <path d="M410 180.1 c0 -7.2 -0.4 -8.6 -3.8 -15.5 l-3.8 -7.6 2.6 0 c4.2 0 7.9 9 8.7 21.4 0.6 9.4 0.5 9.6 -1.5 9.6 -2.1 0 -2.2 -0.5 -2.2 -7.9z"/>
  <path d="M292 181.3 c0 -4.9 2.1 -15.8 3.1 -16.1 0.5 -0.2 0.9 -1.2 0.9 -2.2 0 -2.4 2.1 -7 3.2 -7 0.4 0 0.8 -0.6 0.8 -1.3 0 -2.1 7.4 -8.7 9.8 -8.7 1.2 0 2.2 -0.6 2.2 -1.4 0 -1.8 7.2 -4.7 13.8 -5.3 4.3 -0.5 5.2 -0.3 5.2 1 0 1 -1.6 1.9 -5 2.6 -7.1 1.5 -12.7 4.6 -18.3 10 -7.1 6.7 -10.2 13.6 -12.2 27.4 -0.7 4.4 -3.5 5.2 -3.5 1z"/>
  <path d="M443.1 138.5 c-0.2 -43.5 -0.2 -43.5 -7.2 -50.2 -6.9 -6.5 -4.2 -6.3 -75.9 -6.3 l-65 0 0 -2.7 c0.1 -4 2.4 -14.4 3.9 -17.1 2.3 -4.2 5.5 -5.5 12.8 -4.9 6.1 0.4 21.5 2.8 37.3 5.7 3 0.6 18.6 3.1 34.5 5.6 76.1 12 71.1 10.8 73.9 16.8 1.6 3.4 1.6 4.2 0.2 11.4 -0.9 4.2 -4.3 23.5 -7.6 42.7 -3.3 19.3 -6.2 35.7 -6.4 36.5 -0.2 0.8 -0.4 -16 -0.5 -37.5z"/>
  <path d="M397.5 153.4 c-4 -3.1 -11.6 -6.5 -16.2 -7.1 -4.1 -0.6 -4.4 -0.7 -2.8 -2 1.1 -0.7 3.4 -1.3 5.3 -1.3 3.6 0 13.2 3.7 13.2 5.1 0 0.5 0.7 0.9 1.5 0.9 1 0 1.5 1 1.5 3 0 3.5 0.1 3.4 -2.5 1.4z"/>
  <path d="M341.8 142.8 c-4.2 -1.1 -5.2 -3.8 -1.4 -3.8 1.9 0 2.3 -0.4 1.9 -2 -0.3 -1.1 -0.9 -2 -1.4 -2 -0.5 0 -0.9 -1.1 -0.9 -2.4 0 -1.8 -0.6 -2.5 -2.2 -2.8 -1.5 -0.2 -2.4 -1.1 -2.6 -2.5 -0.2 -1.3 -0.8 -2.3 -1.3 -2.3 -0.5 0 -0.9 -1.6 -0.9 -3.5 0 -3 0.3 -3.5 2.4 -3.5 1.9 0 2.2 0.4 1.9 2.4 -0.4 1.9 0.7 4 4.1 8.3 3.6 4.6 7.6 12.5 7.6 14.9 0 0.6 -3.2 0.3 -7.2 -0.8z"/>
  <path d="M355.7 135.9 c-0.3 -2.3 -2 -7.1 -3.7 -10.6 -2.7 -5.4 -3.9 -6.8 -7.1 -8.2 -4.6 -1.9 -5.1 -4.1 -1 -4.1 3.9 0 6.1 0.9 6.1 2.6 0 0.8 0.7 1.4 1.5 1.4 0.8 0 1.5 0.6 1.5 1.4 0 0.8 0.5 1.6 1.1 1.8 0.6 0.2 2.1 3.5 3.4 7.3 2.1 6.2 2.2 7.1 0.9 9.7 -0.8 1.5 -1.6 2.8 -1.8 2.8 -0.2 0 -0.6 -1.9 -0.9 -4.1z"/>
  <path d="M427.3 102 c-0.8 -2.2 -2.4 -3.6 -5.2 -4.8 -4.5 -1.9 -5.7 -5.2 -2 -5.2 5.7 0 11.9 5.7 11.9 11 0 3.2 -3.4 2.5 -4.7 -1z"/>
  <path d="M308 94 c0 -1.9 0.7 -2 18 -2 17.3 0 18 0.1 18 2 0 1.9 -0.7 2 -18 2 -17.3 0 -18 -0.1 -18 -2z"/>
  <path d="M345 94 c0 -2 0.7 -2 29.5 -2 28.8 0 29.5 0 29.5 2 0 2 -0.7 2 -29.5 2 -28.8 0 -29.5 0 -29.5 -2z"/>
 </g>
 <g fill="#00b3fc">
  <path d="M356 267.5 c0 -1.4 2.5 -8.8 5.6 -16.4 l5.5 -13.9 5.2 -0.7 c15.9 -2 27.4 -13.7 34.9 -35.5 2.4 -7 2.9 -10.2 3 -18.5 0.1 -8.9 -0.1 -10.7 -2.7 -16.2 -4.6 -10.4 -17.5 -20.3 -26.2 -20.3 -1.8 0 -3.3 -0.2 -3.3 -0.5 0 -0.2 2.2 -2.5 5 -5.1 5.4 -5 10.6 -14.3 9.6 -17 -0.5 -1.4 -1.7 -1.6 -7.9 -1 -11.1 1.1 -21.3 6.6 -25.7 13.9 l-1.8 2.9 -1.7 -5.8 c-2.9 -10.3 -8.1 -17.4 -12.8 -17.4 -1 0 -2.9 1.1 -4.3 2.5 -2.8 2.8 -2.4 4.3 2.9 10.4 3.2 3.7 6.6 10.6 6.7 13.3 0 1.4 -0.5 1.5 -3.7 0.6 -2.1 -0.6 -7.7 -0.8 -12.4 -0.6 -7.4 0.3 -9.7 0.9 -15.3 3.8 -11.9 6 -18.5 15.8 -20.8 30.7 -1.2 8.3 0.1 20.8 2.8 27 0.8 1.8 2.1 4.8 2.9 6.7 l1.4 3.4 -3.7 -0.9 c-2 -0.5 -9.2 -0.9 -15.9 -0.9 l-12.3 0 0 -56.4 0 -56.4 2.9 -3 c1.9 -1.9 4.4 -3.1 6.8 -3.4 2.1 -0.3 34.9 -0.4 72.8 -0.3 77 0.3 74.1 0 77.1 7 2.2 5.3 1 160.4 -1.2 164.7 -2.8 5.5 -5.1 5.8 -40.9 5.8 l-32.5 0 0 -2.5z"/>
 </g>
 <g fill="#fbf7ec">
  <path d="M54 409.7 c-19.7 -4.5 -30.1 -22.5 -30.2 -52.2 -0.1 -26.6 7.3 -44.6 21.8 -53.1 9.2 -5.4 24.7 -6.6 37.3 -2.8 10.2 3 19.3 15 20.8 27.5 0.5 4.4 0.4 4.8 -1.8 5.3 -8.9 2.1 -11.9 2.6 -15.7 2.6 -4.1 0 -4.4 -0.2 -5.8 -3.7 -4 -10.5 -7 -13.3 -13.7 -13.3 -7.7 0 -14.7 8.8 -16.6 21 -2.4 14.5 -0.6 32.8 4 40.9 5.9 10.5 20 10.6 25.4 0.1 0.7 -1.4 1.6 -4.9 2 -7.7 l0.7 -5.3 -6.9 0 c-3.7 0 -7.4 -0.4 -8.1 -0.8 -0.9 -0.6 -1.2 -3.4 -1 -10.3 l0.3 -9.4 19 0 19 0 0.3 12.5 c0.5 20.4 -2.1 30.1 -10.3 38.9 -6.5 7 -13.9 10 -25.7 10.6 -5.6 0.3 -11.5 0 -14.8 -0.8z"/>
  <path d="M113 406.8 c0 -1.3 1.3 -7.2 2.9 -13.3 1.7 -6 7.5 -28.5 13.1 -50 6.7 -25.8 10.6 -39.4 11.7 -40.2 2.3 -1.8 26.3 -1.8 28.6 0 0.9 0.6 2.4 3.9 3.3 7.2 11.6 44.6 24.3 97 23.6 97.7 -0.5 0.5 -5.8 0.7 -11.7 0.6 l-10.9 -0.3 -0.9 -4 c-0.5 -2.2 -1.5 -6.4 -2.3 -9.3 l-1.5 -5.3 -14.1 0.3 -14.2 0.3 -1.3 5.5 c-0.7 3 -1.8 7.2 -2.3 9.3 l-1.1 3.7 -11.4 0 c-11.3 0 -11.5 0 -11.5 -2.2z m51.5 -38 c-0.2 -0.7 -2.2 -9.6 -4.5 -19.8 -3.7 -16.8 -5.8 -24.3 -5.9 -21.4 -0.1 0.6 -2.1 10 -4.6 21 -2.5 10.9 -4.5 20.2 -4.5 20.6 0 0.4 4.5 0.8 10 0.8 7.5 0 9.8 -0.3 9.5 -1.2z"/>
  <path d="M206.4 407.5 c-0.4 -0.9 0.8 -20.1 2.5 -42.8 1.7 -22.6 3.4 -45.2 3.7 -50.2 0.9 -13.1 0.2 -12.5 14.8 -12.5 8.8 0 12.7 0.4 13.4 1.3 0.6 0.7 4.7 14.1 9.2 29.7 4.5 15.7 8.6 29.2 9 30 1.1 1.9 0.1 4.7 10 -29 4.5 -15.1 8.8 -28.5 9.6 -29.7 1.4 -2.2 2.1 -2.3 13.8 -2.3 10.6 0 12.5 0.2 13 1.6 0.4 1 1.3 12.8 2.1 26.3 0.9 13.5 2.2 33.9 3 45.3 0.8 11.4 1.5 23.7 1.5 27.3 l0 6.5 -10.9 0 -11 0 -0.5 -4.2 c-0.3 -2.4 -1.1 -14.9 -1.7 -27.8 -1.8 -35.9 -1 -35.6 -10.8 -4.1 -4.6 14.9 -8.9 27.5 -9.5 28 -1.2 1 -5.3 1.4 -12.4 1.2 -5.3 -0.1 -4.7 1.3 -14.3 -31.5 -5.5 -18.8 -7.5 -24.3 -8 -22.5 -0.4 1.3 -1.5 15.2 -2.4 30.9 -0.9 15.7 -1.9 28.8 -2.2 29.3 -0.2 0.4 -5.1 0.7 -10.9 0.7 -8.5 0 -10.6 -0.3 -11 -1.5z"/>
  <path d="M323.5 407.8 c-0.3 -0.7 -0.4 -24.7 -0.3 -53.3 l0.3 -52 21 0 21 0 0 10 0 10 -10.2 0.3 -10.3 0.3 0 11.4 0 11.5 8.9 0 c7.2 0 9 0.3 9.5 1.6 0.9 2.2 0.7 14.7 -0.2 16.1 -0.5 0.8 -4.1 1.3 -9.7 1.5 l-9 0.3 -0.3 11.8 -0.3 11.7 10.8 0 c5.9 0 11.4 0.4 12.1 0.8 0.9 0.6 1.2 3.3 1 9.8 l-0.3 8.9 -21.8 0.3 c-16.8 0.2 -21.9 0 -22.2 -1z"/>
  <path d="M223.3 289.5 c-5.5 -2.8 -9.1 -7.2 -11.9 -14.5 -1.4 -3.4 -1.8 -7.7 -1.8 -18 0 -11.6 0.3 -14.3 2.2 -19.1 4.7 -12 12.8 -17.5 25.2 -17.3 16.6 0.2 24.4 11.2 24.4 34.4 0.1 12.9 -1.7 20.8 -6.2 27.5 -6.1 9.1 -21.1 12.4 -31.9 7z m15.2 -11.9 c4.1 -1.7 6 -5.1 7.5 -13.6 1.9 -10.4 0 -23.3 -4.2 -27.7 -3.1 -3.3 -9.1 -3.2 -12.3 0.3 -3.8 4.1 -5 9 -5 20.9 0 12.3 1.8 17.9 6.5 20.2 3.2 1.6 3.4 1.6 7.5 -0.1z"/>
  <path d="M29.2 290.2 c-1 -0.7 -1.1 -4.5 -0.2 -19.8 0.5 -10.4 1.3 -23.2 1.6 -28.4 0.2 -5.2 0.7 -11.9 1 -14.8 l0.6 -5.3 8.5 0.3 8.6 0.3 5.4 18.9 c2.9 10.4 5.5 19.2 5.8 19.4 0.2 0.3 0.7 -0.1 0.9 -0.9 1.2 -3.4 5.6 -18.3 8.2 -27.6 l2.9 -10.3 8.2 0 8.2 0 0.5 3.3 c0.4 2.5 2.8 40 3.9 60.2 l0.2 4 -6.6 0.3 -6.6 0.3 -0.6 -3.8 c-0.3 -2.1 -0.9 -10.9 -1.3 -19.6 -0.4 -8.7 -1.1 -16 -1.5 -16.3 -0.5 -0.3 -0.9 0.3 -1 1.3 0 1 -2.4 9 -5.3 17.8 l-5.2 16 -4.9 0 -5 0 -5.5 -17.8 -5.5 -17.8 -0.7 7.8 c-0.4 4.3 -1.1 13.4 -1.5 20.3 l-0.8 12.5 -5.5 0.3 c-3 0.1 -6.1 -0.2 -6.8 -0.6z"/>
  <path d="M103.5 288.7 c-0.3 -0.7 -0.4 -15.8 -0.3 -33.7 l0.3 -32.5 14.5 0 14.5 0 0 6 0 6 -7.2 0.3 -7.3 0.3 0 7.4 0 7.4 6.3 0.3 6.2 0.3 0 6 0 6 -6.2 0.3 -6.3 0.3 0 6.9 0 7 5.3 0 c9.2 0 9.7 0.4 9.7 7.1 l0 5.9 -14.5 0 c-10.8 0 -14.7 -0.3 -15 -1.3z"/>
  <path d="M138.5 284.8 c0.3 -2.9 1.2 -16.3 2 -29.8 0.9 -13.5 1.8 -26.4 2.1 -28.8 l0.5 -4.3 7.6 0.3 7.6 0.3 1.8 5.5 c0.9 3 3.2 10.5 4.9 16.5 1.7 6.1 3.7 12.6 4.3 14.5 1.2 4 0.5 5.6 5.7 -12.5 1.8 -6 4.1 -14 5.2 -17.8 l2 -6.7 7.9 0 c4.3 0 7.9 0.2 7.9 0.4 0 0.2 0.6 9.5 1.4 20.7 0.8 11.2 1.8 26.4 2.2 33.7 l0.7 13.2 -6.6 0 -6.5 0 -0.6 -3.7 c-0.3 -2.1 -0.8 -10.9 -1.2 -19.6 -0.3 -8.8 -1 -15.5 -1.4 -15 -0.5 0.4 -3 7.8 -5.6 16.3 -2.6 8.5 -5.2 16.1 -5.7 16.8 -0.6 0.8 -2.6 1.2 -5.1 1 l-4.1 -0.3 -3.2 -10 c-1.7 -5.5 -4.2 -13.4 -5.4 -17.5 l-2.3 -7.5 -0.7 8 c-0.4 4.4 -1 13.3 -1.4 19.8 l-0.7 11.7 -6.9 0 -6.9 0 0.5 -5.2z"/>
  <path d="M271 256 l0 -34 13.7 0 c11.8 0 14.3 0.3 17.9 2.1 11.3 5.4 13.7 24.6 4.5 35.1 l-3.8 4.3 5.3 11.3 c7.9 16.7 8 15.3 -1.1 15 l-7.7 -0.3 -4.8 -11.5 c-4.2 -10.2 -5.1 -11.5 -7.4 -11.8 l-2.6 -0.3 0 12 0 12.1 -7 0 -7 0 0 -34z m24.4 -5.1 c3 -3.5 3.4 -8.4 1.1 -12.8 -1.6 -3.3 -3.3 -4.1 -8.1 -4.1 l-3.4 0 0 10 0 10 3.9 0 c3.2 0 4.4 -0.6 6.5 -3.1z"/>
  <path d="M332 277.2 l0 -12.8 -8 -19.9 c-4.4 -11 -8 -20.5 -8 -21.3 0 -1 1.7 -1.2 7.2 -1 l7.1 0.3 4.1 12.2 c2.3 6.7 4.4 12.4 4.7 12.7 0.3 0.3 2.5 -5.3 4.8 -12.4 l4.3 -13 6.9 0 c4.9 0 6.9 0.4 6.9 1.3 0 0.7 -3.6 10.2 -8 21.2 l-8 20 0 12.8 0 12.7 -7 0 -7 0 0 -12.8z"/>
 </g>
</svg>